%TF.GenerationSoftware,KiCad,Pcbnew,8.0.3*%
%TF.CreationDate,2024-07-21T00:31:23+02:00*%
%TF.ProjectId,ArmSoM_P2Pro_Interface,41726d53-6f4d-45f5-9032-50726f5f496e,rev?*%
%TF.SameCoordinates,Original*%
%TF.FileFunction,Soldermask,Top*%
%TF.FilePolarity,Negative*%
%FSLAX46Y46*%
G04 Gerber Fmt 4.6, Leading zero omitted, Abs format (unit mm)*
G04 Created by KiCad (PCBNEW 8.0.3) date 2024-07-21 00:31:23*
%MOMM*%
%LPD*%
G01*
G04 APERTURE LIST*
%ADD10C,1.600000*%
%ADD11O,1.600000X1.600000*%
%ADD12C,1.100000*%
%ADD13R,2.200000X2.200000*%
%ADD14C,2.200000*%
%ADD15R,1.800000X1.800000*%
%ADD16C,1.800000*%
%ADD17R,1.050000X1.500000*%
%ADD18O,1.050000X1.500000*%
%ADD19R,1.700000X1.700000*%
%ADD20O,1.700000X1.700000*%
G04 APERTURE END LIST*
D10*
%TO.C,R2*%
X124500000Y-94920000D03*
D11*
X124500000Y-105080000D03*
%TD*%
D12*
%TO.C,J3*%
X104500000Y-86460000D03*
X101960000Y-86460000D03*
D13*
X104500000Y-89000000D03*
D14*
X101960000Y-89000000D03*
%TD*%
D15*
%TO.C,D1*%
X104000000Y-95500000D03*
D16*
X104000000Y-98040000D03*
%TD*%
D10*
%TO.C,R4*%
X110500000Y-94920000D03*
D11*
X110500000Y-105080000D03*
%TD*%
D10*
%TO.C,R3*%
X115000000Y-105080000D03*
D11*
X115000000Y-94920000D03*
%TD*%
D10*
%TO.C,R1*%
X119500000Y-94920000D03*
D11*
X119500000Y-105080000D03*
%TD*%
D17*
%TO.C,Q1*%
X105270000Y-103640000D03*
D18*
X104000000Y-103640000D03*
X102730000Y-103640000D03*
%TD*%
D12*
%TO.C,J1*%
X115000000Y-86460000D03*
X112460000Y-86460000D03*
D13*
X115000000Y-89000000D03*
D14*
X112460000Y-89000000D03*
%TD*%
D12*
%TO.C,J2*%
X123500000Y-86460000D03*
X120960000Y-86460000D03*
D13*
X123500000Y-89000000D03*
D14*
X120960000Y-89000000D03*
%TD*%
D19*
%TO.C,IC1*%
X76905011Y-80040000D03*
D20*
X76905011Y-77500000D03*
X79445011Y-80040000D03*
X79445011Y-77500000D03*
X81985011Y-80040000D03*
X81985011Y-77500000D03*
X84525011Y-80040000D03*
X84525011Y-77500000D03*
X87065011Y-80040000D03*
X87065011Y-77500000D03*
X89605011Y-80040000D03*
X89605011Y-77500000D03*
X92145011Y-80040000D03*
X92145011Y-77500000D03*
X94685011Y-80040000D03*
X94685011Y-77500000D03*
X97225011Y-80040000D03*
X97225011Y-77500000D03*
X99765011Y-80040000D03*
X99765011Y-77500000D03*
X102305011Y-80040000D03*
X102305011Y-77500000D03*
X104845011Y-80040000D03*
X104845011Y-77500000D03*
X107385011Y-80040000D03*
X107385011Y-77500000D03*
X109925011Y-80040000D03*
X109925011Y-77500000D03*
X112465011Y-80040000D03*
X112465011Y-77500000D03*
X115005011Y-80040000D03*
X115005011Y-77500000D03*
X117545011Y-80040000D03*
X117545011Y-77500000D03*
X120085011Y-80040000D03*
X120085011Y-77500000D03*
X122625011Y-80040000D03*
X122625011Y-77500000D03*
X125165011Y-80040000D03*
X125165011Y-77500000D03*
D19*
X128460000Y-84300000D03*
D20*
X131000000Y-84300000D03*
X128460000Y-86840000D03*
X131000000Y-86840000D03*
X128460000Y-89380000D03*
X131000000Y-89380000D03*
X128460000Y-91920000D03*
X131000000Y-91920000D03*
X128460000Y-94460000D03*
X131000000Y-94460000D03*
X128460000Y-97000000D03*
X131000000Y-97000000D03*
%TD*%
M02*
