%TF.GenerationSoftware,KiCad,Pcbnew,8.0.3*%
%TF.CreationDate,2024-07-21T00:31:23+02:00*%
%TF.ProjectId,ArmSoM_P2Pro_Interface,41726d53-6f4d-45f5-9032-50726f5f496e,rev?*%
%TF.SameCoordinates,Original*%
%TF.FileFunction,Copper,L1,Top*%
%TF.FilePolarity,Positive*%
%FSLAX46Y46*%
G04 Gerber Fmt 4.6, Leading zero omitted, Abs format (unit mm)*
G04 Created by KiCad (PCBNEW 8.0.3) date 2024-07-21 00:31:23*
%MOMM*%
%LPD*%
G01*
G04 APERTURE LIST*
%TA.AperFunction,ComponentPad*%
%ADD10C,1.600000*%
%TD*%
%TA.AperFunction,ComponentPad*%
%ADD11O,1.600000X1.600000*%
%TD*%
%TA.AperFunction,ComponentPad*%
%ADD12R,2.200000X2.200000*%
%TD*%
%TA.AperFunction,ComponentPad*%
%ADD13C,2.200000*%
%TD*%
%TA.AperFunction,ComponentPad*%
%ADD14R,1.800000X1.800000*%
%TD*%
%TA.AperFunction,ComponentPad*%
%ADD15C,1.800000*%
%TD*%
%TA.AperFunction,ComponentPad*%
%ADD16R,1.050000X1.500000*%
%TD*%
%TA.AperFunction,ComponentPad*%
%ADD17O,1.050000X1.500000*%
%TD*%
%TA.AperFunction,ComponentPad*%
%ADD18R,1.700000X1.700000*%
%TD*%
%TA.AperFunction,ComponentPad*%
%ADD19O,1.700000X1.700000*%
%TD*%
%TA.AperFunction,ViaPad*%
%ADD20C,0.600000*%
%TD*%
%TA.AperFunction,Conductor*%
%ADD21C,0.508000*%
%TD*%
%TA.AperFunction,Conductor*%
%ADD22C,0.381000*%
%TD*%
G04 APERTURE END LIST*
D10*
%TO.P,R2,1*%
%TO.N,Net-(J2-Pin_1)*%
X124500000Y-94920000D03*
D11*
%TO.P,R2,2*%
%TO.N,Net-(IC1-MICP1)*%
X124500000Y-105080000D03*
%TD*%
D12*
%TO.P,J3,1,Pin_1*%
%TO.N,/PTT*%
X104500000Y-89000000D03*
D13*
%TO.P,J3,2,Pin_2*%
%TO.N,GND*%
X101960000Y-89000000D03*
%TD*%
D14*
%TO.P,D1,1,K*%
%TO.N,Net-(D1-K)*%
X104000000Y-95500000D03*
D15*
%TO.P,D1,2,A*%
%TO.N,Net-(D1-A)*%
X104000000Y-98040000D03*
%TD*%
D10*
%TO.P,R4,1*%
%TO.N,GND*%
X110500000Y-94920000D03*
D11*
%TO.P,R4,2*%
%TO.N,Net-(Q1-B)*%
X110500000Y-105080000D03*
%TD*%
D10*
%TO.P,R3,1*%
%TO.N,Net-(Q1-B)*%
X115000000Y-105080000D03*
D11*
%TO.P,R3,2*%
%TO.N,Net-(D1-K)*%
X115000000Y-94920000D03*
%TD*%
D10*
%TO.P,R1,1*%
%TO.N,Net-(J1-Pin_1)*%
X119500000Y-94920000D03*
D11*
%TO.P,R1,2*%
%TO.N,Net-(IC1-LINEOUT_L)*%
X119500000Y-105080000D03*
%TD*%
D16*
%TO.P,Q1,1,C*%
%TO.N,/PTT*%
X105270000Y-103640000D03*
D17*
%TO.P,Q1,2,B*%
%TO.N,Net-(Q1-B)*%
X104000000Y-103640000D03*
%TO.P,Q1,3,E*%
%TO.N,GND*%
X102730000Y-103640000D03*
%TD*%
D12*
%TO.P,J1,1,Pin_1*%
%TO.N,Net-(J1-Pin_1)*%
X115000000Y-89000000D03*
D13*
%TO.P,J1,2,Pin_2*%
%TO.N,GND*%
X112460000Y-89000000D03*
%TD*%
D12*
%TO.P,J2,1,Pin_1*%
%TO.N,Net-(J2-Pin_1)*%
X123500000Y-89000000D03*
D13*
%TO.P,J2,2,Pin_2*%
%TO.N,GND*%
X120960000Y-89000000D03*
%TD*%
D18*
%TO.P,IC1,J4_1,3V3*%
%TO.N,+3.3V*%
X76905011Y-80040000D03*
D19*
%TO.P,IC1,J4_2,5V*%
%TO.N,unconnected-(IC1-5V-PadJ4_2)*%
X76905011Y-77500000D03*
%TO.P,IC1,J4_3,ADC_KEY_IN1*%
%TO.N,unconnected-(IC1-ADC_KEY_IN1-PadJ4_3)*%
X79445011Y-80040000D03*
%TO.P,IC1,J4_4,5V*%
%TO.N,unconnected-(IC1-5V-PadJ4_4)*%
X79445011Y-77500000D03*
%TO.P,IC1,J4_5,GPIO2_A5/I2S0_SCLK_TX*%
%TO.N,unconnected-(IC1-GPIO2_A5{slash}I2S0_SCLK_TX-PadJ4_5)*%
X81985011Y-80040000D03*
%TO.P,IC1,J4_6,SPDIF_TX/GPIO0_C1*%
%TO.N,unconnected-(IC1-SPDIF_TX{slash}GPIO0_C1-PadJ4_6)*%
X81985011Y-77500000D03*
%TO.P,IC1,J4_7,I2S0_SCLK_RX/GPIO2_A6/PDM_CLK*%
%TO.N,unconnected-(IC1-I2S0_SCLK_RX{slash}GPIO2_A6{slash}PDM_CLK-PadJ4_7)*%
X84525011Y-80040000D03*
%TO.P,IC1,J4_8,I2S0_LRCK_TX/GPIO2_A7*%
%TO.N,unconnected-(IC1-I2S0_LRCK_TX{slash}GPIO2_A7-PadJ4_8)*%
X84525011Y-77500000D03*
%TO.P,IC1,J4_9,I2S0_8CH_MCLK/GPIO2_A4/I2S0_MCLK*%
%TO.N,unconnected-(IC1-I2S0_8CH_MCLK{slash}GPIO2_A4{slash}I2S0_MCLK-PadJ4_9)*%
X87065011Y-80040000D03*
%TO.P,IC1,J4_10,I2S0_LRCK_RX/GPIO2_B0*%
%TO.N,unconnected-(IC1-I2S0_LRCK_RX{slash}GPIO2_B0-PadJ4_10)*%
X87065011Y-77500000D03*
%TO.P,IC1,J4_11,GPIO2_B1/I2S0_SDO0*%
%TO.N,unconnected-(IC1-GPIO2_B1{slash}I2S0_SDO0-PadJ4_11)*%
X89605011Y-80040000D03*
%TO.P,IC1,J4_12,PDM_SDI0/GPIO2_B5/I2S0_SDI0*%
%TO.N,unconnected-(IC1-PDM_SDI0{slash}GPIO2_B5{slash}I2S0_SDI0-PadJ4_12)*%
X89605011Y-77500000D03*
%TO.P,IC1,J4_13,GPIO2_B2/I2S0_SDO1*%
%TO.N,unconnected-(IC1-GPIO2_B2{slash}I2S0_SDO1-PadJ4_13)*%
X92145011Y-80040000D03*
%TO.P,IC1,J4_14,PDM_SDI1/GPIO2_B6/I2S0_SDI1*%
%TO.N,unconnected-(IC1-PDM_SDI1{slash}GPIO2_B6{slash}I2S0_SDI1-PadJ4_14)*%
X92145011Y-77500000D03*
%TO.P,IC1,J4_15,GPIO2_B3/I2S0_SDO2*%
%TO.N,unconnected-(IC1-GPIO2_B3{slash}I2S0_SDO2-PadJ4_15)*%
X94685011Y-80040000D03*
%TO.P,IC1,J4_16,PDM_SDI2/GPIO2_B7/I2S0_SDI2*%
%TO.N,unconnected-(IC1-PDM_SDI2{slash}GPIO2_B7{slash}I2S0_SDI2-PadJ4_16)*%
X94685011Y-77500000D03*
%TO.P,IC1,J4_17,GPIO2_B4/I2S0_SDO3*%
%TO.N,unconnected-(IC1-GPIO2_B4{slash}I2S0_SDO3-PadJ4_17)*%
X97225011Y-80040000D03*
%TO.P,IC1,J4_18,GPIO2_C0/PDM_SDI3/I2S0_SDI3*%
%TO.N,Net-(D1-A)*%
X97225011Y-77500000D03*
%TO.P,IC1,J4_19,GND*%
%TO.N,GND*%
X99765011Y-80040000D03*
%TO.P,IC1,J4_20,GND*%
X99765011Y-77500000D03*
%TO.P,IC1,J4_21,LINEOUT_L*%
%TO.N,Net-(IC1-LINEOUT_L)*%
X102305011Y-80040000D03*
%TO.P,IC1,J4_22,LINEOUT_R*%
%TO.N,unconnected-(IC1-LINEOUT_R-PadJ4_22)*%
X102305011Y-77500000D03*
%TO.P,IC1,J4_23,MICBIAS1*%
%TO.N,unconnected-(IC1-MICBIAS1-PadJ4_23)*%
X104845011Y-80040000D03*
%TO.P,IC1,J4_24,MICBIAS2*%
%TO.N,unconnected-(IC1-MICBIAS2-PadJ4_24)*%
X104845011Y-77500000D03*
%TO.P,IC1,J4_25,MICP1*%
%TO.N,Net-(IC1-MICP1)*%
X107385011Y-80040000D03*
%TO.P,IC1,J4_26,MICN1*%
%TO.N,unconnected-(IC1-MICN1-PadJ4_26)*%
X107385011Y-77500000D03*
%TO.P,IC1,J4_27,MICP2*%
%TO.N,unconnected-(IC1-MICP2-PadJ4_27)*%
X109925011Y-80040000D03*
%TO.P,IC1,J4_28,MICN2*%
%TO.N,unconnected-(IC1-MICN2-PadJ4_28)*%
X109925011Y-77500000D03*
%TO.P,IC1,J4_29,MICP3*%
%TO.N,unconnected-(IC1-MICP3-PadJ4_29)*%
X112465011Y-80040000D03*
%TO.P,IC1,J4_30,MICN3*%
%TO.N,unconnected-(IC1-MICN3-PadJ4_30)*%
X112465011Y-77500000D03*
%TO.P,IC1,J4_31,MICP4*%
%TO.N,unconnected-(IC1-MICP4-PadJ4_31)*%
X115005011Y-80040000D03*
%TO.P,IC1,J4_32,MICN4*%
%TO.N,unconnected-(IC1-MICN4-PadJ4_32)*%
X115005011Y-77500000D03*
%TO.P,IC1,J4_33,MICP5*%
%TO.N,unconnected-(IC1-MICP5-PadJ4_33)*%
X117545011Y-80040000D03*
%TO.P,IC1,J4_34,MICN5*%
%TO.N,unconnected-(IC1-MICN5-PadJ4_34)*%
X117545011Y-77500000D03*
%TO.P,IC1,J4_35,MICP6*%
%TO.N,unconnected-(IC1-MICP6-PadJ4_35)*%
X120085011Y-80040000D03*
%TO.P,IC1,J4_36,MICN6*%
%TO.N,unconnected-(IC1-MICN6-PadJ4_36)*%
X120085011Y-77500000D03*
%TO.P,IC1,J4_37,MICP7*%
%TO.N,unconnected-(IC1-MICP7-PadJ4_37)*%
X122625011Y-80040000D03*
%TO.P,IC1,J4_38,MICN7*%
%TO.N,unconnected-(IC1-MICN7-PadJ4_38)*%
X122625011Y-77500000D03*
%TO.P,IC1,J4_39,MICP8*%
%TO.N,unconnected-(IC1-MICP8-PadJ4_39)*%
X125165011Y-80040000D03*
%TO.P,IC1,J4_40,MICN8*%
%TO.N,unconnected-(IC1-MICN8-PadJ4_40)*%
X125165011Y-77500000D03*
D18*
%TO.P,IC1,J11_1,UART0_TX/GPIO2_A1/SPI0_TX*%
%TO.N,unconnected-(IC1-UART0_TX{slash}GPIO2_A1{slash}SPI0_TX-PadJ11_1)*%
X128460000Y-84300000D03*
D19*
%TO.P,IC1,J11_2,I2C1_SDA/GPIO0_B3*%
%TO.N,unconnected-(IC1-I2C1_SDA{slash}GPIO0_B3-PadJ11_2)*%
X131000000Y-84300000D03*
%TO.P,IC1,J11_3,UART0_RX/GPIO2_A0/SPI0_RX*%
%TO.N,unconnected-(IC1-UART0_RX{slash}GPIO2_A0{slash}SPI0_RX-PadJ11_3)*%
X128460000Y-86840000D03*
%TO.P,IC1,J11_4,I2C1_SCL/GPIO0_B4*%
%TO.N,unconnected-(IC1-I2C1_SCL{slash}GPIO0_B4-PadJ11_4)*%
X131000000Y-86840000D03*
%TO.P,IC1,J11_5,UART0_TX/GPIO2_A1/SPI0_TX*%
%TO.N,unconnected-(IC1-UART0_TX{slash}GPIO2_A1{slash}SPI0_TX-PadJ11_5)*%
X128460000Y-89380000D03*
%TO.P,IC1,J11_6,VCC_IO_+3.3V*%
%TO.N,unconnected-(IC1-VCC_IO_+3.3V-PadJ11_6)*%
X131000000Y-89380000D03*
%TO.P,IC1,J11_7,SPI2_CLK/I2C0_SDA/GPIO1_D0/UART1_TX*%
%TO.N,unconnected-(IC1-SPI2_CLK{slash}I2C0_SDA{slash}GPIO1_D0{slash}UART1_TX-PadJ11_7)*%
X128460000Y-91920000D03*
%TO.P,IC1,J11_8,GND*%
%TO.N,unconnected-(IC1-GND-PadJ11_8)*%
X131000000Y-91920000D03*
%TO.P,IC1,J11_9,JTAG_TMS/UART2_TX_M0/GPIO1_C7_/_SPI2_TX*%
%TO.N,unconnected-(IC1-JTAG_TMS{slash}UART2_TX_M0{slash}GPIO1_C7_{slash}_SPI2_TX-PadJ11_9)*%
X128460000Y-94460000D03*
%TO.P,IC1,J11_10,PWM2/GPIO0_B7/I2C3_SDA*%
%TO.N,unconnected-(IC1-PWM2{slash}GPIO0_B7{slash}I2C3_SDA-PadJ11_10)*%
X131000000Y-94460000D03*
%TO.P,IC1,J11_11,JTAG_TCK/UART2_RX_M0/GPIO1_C6/SPI2_RX*%
%TO.N,unconnected-(IC1-JTAG_TCK{slash}UART2_RX_M0{slash}GPIO1_C6{slash}SPI2_RX-PadJ11_11)*%
X128460000Y-97000000D03*
%TO.P,IC1,J11_12,PWM3_GPIO0_C0/IR_RX*%
%TO.N,unconnected-(IC1-PWM3_GPIO0_C0{slash}IR_RX-PadJ11_12)*%
X131000000Y-97000000D03*
%TD*%
D20*
%TO.N,GND*%
X124460000Y-91440000D03*
X123190000Y-100965000D03*
X116205000Y-93345000D03*
X113665000Y-93345000D03*
X124460000Y-97155000D03*
X121920000Y-95885000D03*
X121920000Y-93980000D03*
X121920000Y-91440000D03*
X120015000Y-91440000D03*
X118110000Y-88900000D03*
X118110000Y-86360000D03*
X113665000Y-90805000D03*
X101600000Y-81280000D03*
X96520000Y-81280000D03*
X93980000Y-81280000D03*
X91440000Y-81280000D03*
X88900000Y-81280000D03*
X86360000Y-81280000D03*
X83820000Y-81280000D03*
X81280000Y-81280000D03*
X78740000Y-81280000D03*
X76200000Y-76200000D03*
X78740000Y-76200000D03*
X81280000Y-76200000D03*
X83820000Y-76200000D03*
X86360000Y-76200000D03*
X88900000Y-76200000D03*
X91440000Y-76200000D03*
X93980000Y-76200000D03*
X96520000Y-76200000D03*
X99060000Y-76200000D03*
X101600000Y-76200000D03*
X104140000Y-76200000D03*
X106680000Y-76200000D03*
X109220000Y-76200000D03*
X111760000Y-76200000D03*
X114300000Y-76200000D03*
X116840000Y-76200000D03*
X119380000Y-76200000D03*
X121920000Y-76200000D03*
X124460000Y-76200000D03*
X129540000Y-78740000D03*
X127000000Y-78740000D03*
X127000000Y-76200000D03*
X129540000Y-76200000D03*
X129540000Y-81280000D03*
X127000000Y-81280000D03*
X124460000Y-81280000D03*
X121920000Y-81280000D03*
X119380000Y-81280000D03*
X116840000Y-81280000D03*
X114300000Y-81280000D03*
X111760000Y-81280000D03*
X111760000Y-83820000D03*
X114300000Y-83820000D03*
X116840000Y-83820000D03*
X119380000Y-83820000D03*
X121920000Y-83820000D03*
X124460000Y-83820000D03*
X127000000Y-83820000D03*
X127000000Y-86360000D03*
X127000000Y-88900000D03*
X127000000Y-91440000D03*
X127000000Y-93980000D03*
X127000000Y-96520000D03*
X127000000Y-99060000D03*
X127000000Y-101600000D03*
X127000000Y-104140000D03*
X129540000Y-104140000D03*
X129540000Y-101600000D03*
X129540000Y-99060000D03*
X129540000Y-106680000D03*
X127000000Y-106680000D03*
X124460000Y-106680000D03*
X121920000Y-99060000D03*
X111760000Y-96520000D03*
X114300000Y-99060000D03*
X111760000Y-99060000D03*
X111760000Y-101600000D03*
X114300000Y-101600000D03*
X116840000Y-101600000D03*
X116840000Y-104140000D03*
X111760000Y-104140000D03*
X109220000Y-104140000D03*
X109220000Y-101600000D03*
X109220000Y-99060000D03*
X109220000Y-96520000D03*
X109220000Y-93980000D03*
X104140000Y-91440000D03*
X106680000Y-88900000D03*
X106680000Y-86360000D03*
X106680000Y-83820000D03*
X104140000Y-83820000D03*
X101600000Y-83820000D03*
X93980000Y-96520000D03*
X91440000Y-96520000D03*
X91440000Y-99060000D03*
X93980000Y-99060000D03*
X93980000Y-101600000D03*
X91440000Y-101600000D03*
X91440000Y-104140000D03*
X93980000Y-104140000D03*
X96520000Y-104140000D03*
X96520000Y-101600000D03*
X96520000Y-99060000D03*
X96520000Y-96520000D03*
X96520000Y-93980000D03*
X93980000Y-93980000D03*
X91440000Y-93980000D03*
X91440000Y-91440000D03*
X91440000Y-88900000D03*
X93980000Y-91440000D03*
X93980000Y-88900000D03*
X93980000Y-86360000D03*
X91440000Y-86360000D03*
X88900000Y-86360000D03*
X86360000Y-86360000D03*
X83820000Y-86360000D03*
X88900000Y-88900000D03*
X86360000Y-88900000D03*
X83820000Y-88900000D03*
X88900000Y-91440000D03*
X88900000Y-93980000D03*
X88900000Y-96520000D03*
X88900000Y-99060000D03*
X88900000Y-101600000D03*
X88900000Y-104140000D03*
X88900000Y-106680000D03*
X91440000Y-106680000D03*
X93980000Y-106680000D03*
X96520000Y-106680000D03*
X99060000Y-106680000D03*
X99060000Y-104140000D03*
X99060000Y-101600000D03*
X99060000Y-99060000D03*
X99060000Y-96520000D03*
X101600000Y-93980000D03*
X99060000Y-93980000D03*
X96520000Y-91440000D03*
X96520000Y-88900000D03*
X96520000Y-86360000D03*
X96520000Y-83820000D03*
X93980000Y-83820000D03*
X91440000Y-83820000D03*
X88900000Y-83820000D03*
X86360000Y-83820000D03*
X83820000Y-83820000D03*
X81280000Y-83820000D03*
X81280000Y-86360000D03*
X81280000Y-88900000D03*
X78740000Y-88900000D03*
X78740000Y-86360000D03*
X78740000Y-83820000D03*
%TD*%
D21*
%TO.N,Net-(D1-K)*%
X122000000Y-106000000D02*
X122000000Y-101920000D01*
X122000000Y-101920000D02*
X115000000Y-94920000D01*
X100500000Y-97000000D02*
X100500000Y-104500000D01*
X120500000Y-107500000D02*
X122000000Y-106000000D01*
X102000000Y-95500000D02*
X100500000Y-97000000D01*
X104000000Y-95500000D02*
X102000000Y-95500000D01*
X100500000Y-104500000D02*
X103500000Y-107500000D01*
X103500000Y-107500000D02*
X120500000Y-107500000D01*
%TO.N,Net-(IC1-LINEOUT_L)*%
X107500000Y-82000000D02*
X104265011Y-82000000D01*
X109000000Y-83500000D02*
X107500000Y-82000000D01*
X109000000Y-90501264D02*
X109000000Y-83500000D01*
X111208000Y-92708000D02*
X111206736Y-92708000D01*
X113000000Y-94500000D02*
X111208000Y-92708000D01*
X104265011Y-82000000D02*
X102305011Y-80040000D01*
X119500000Y-102500000D02*
X113000000Y-96000000D01*
X113000000Y-96000000D02*
X113000000Y-94500000D01*
X111206736Y-92708000D02*
X109000000Y-90501264D01*
X119500000Y-105080000D02*
X119500000Y-102500000D01*
%TO.N,Net-(IC1-MICP1)*%
X110000000Y-90500000D02*
X110000000Y-82654989D01*
X116998736Y-92000000D02*
X111500000Y-92000000D01*
X117500000Y-92501264D02*
X116998736Y-92000000D01*
X119000000Y-97000000D02*
X117500000Y-95500000D01*
X110000000Y-82654989D02*
X107385011Y-80040000D01*
X122000000Y-97000000D02*
X119000000Y-97000000D01*
X117500000Y-95500000D02*
X117500000Y-92501264D01*
X111500000Y-92000000D02*
X110000000Y-90500000D01*
X124500000Y-99500000D02*
X122000000Y-97000000D01*
X124500000Y-105080000D02*
X124500000Y-99500000D01*
%TO.N,Net-(D1-A)*%
X105354000Y-96686000D02*
X104000000Y-98040000D01*
X105354000Y-94354000D02*
X105354000Y-96686000D01*
X101000000Y-92000000D02*
X103000000Y-92000000D01*
X103000000Y-92000000D02*
X105354000Y-94354000D01*
X98495011Y-89495011D02*
X101000000Y-92000000D01*
X98495011Y-80614135D02*
X98495011Y-89495011D01*
D22*
X98495011Y-80614135D02*
X98495011Y-79465865D01*
D21*
X98495011Y-78770000D02*
X98495011Y-79465865D01*
X97225011Y-77500000D02*
X98495011Y-78770000D01*
%TO.N,Net-(Q1-B)*%
X104527000Y-105080000D02*
X104000000Y-104553000D01*
X110500000Y-105080000D02*
X104527000Y-105080000D01*
X104000000Y-104553000D02*
X104000000Y-103640000D01*
X115000000Y-105080000D02*
X110500000Y-105080000D01*
%TO.N,Net-(J2-Pin_1)*%
X123500000Y-93920000D02*
X124500000Y-94920000D01*
X123500000Y-89000000D02*
X123500000Y-93920000D01*
%TO.N,Net-(J1-Pin_1)*%
X119500000Y-93500000D02*
X119500000Y-94920000D01*
X115000000Y-89000000D02*
X119500000Y-93500000D01*
%TO.N,/PTT*%
X107000000Y-103500000D02*
X105410000Y-103500000D01*
X107000000Y-92000000D02*
X107000000Y-103500000D01*
X104500000Y-89500000D02*
X107000000Y-92000000D01*
X104500000Y-89000000D02*
X104500000Y-89500000D01*
X105410000Y-103500000D02*
X105270000Y-103640000D01*
%TD*%
%TA.AperFunction,Conductor*%
%TO.N,GND*%
G36*
X131506923Y-75501280D02*
G01*
X131597267Y-75511459D01*
X131624334Y-75517637D01*
X131703541Y-75545352D01*
X131728553Y-75557397D01*
X131799603Y-75602042D01*
X131799605Y-75602043D01*
X131821313Y-75619355D01*
X131880644Y-75678686D01*
X131897957Y-75700395D01*
X131942602Y-75771447D01*
X131954646Y-75796456D01*
X131982364Y-75875668D01*
X131988541Y-75902735D01*
X131998720Y-75993077D01*
X131999500Y-76006960D01*
X131999500Y-83112998D01*
X131979815Y-83180037D01*
X131927011Y-83225792D01*
X131857853Y-83235736D01*
X131804377Y-83214573D01*
X131677834Y-83125967D01*
X131677830Y-83125965D01*
X131650022Y-83112998D01*
X131463663Y-83026097D01*
X131463659Y-83026096D01*
X131463655Y-83026094D01*
X131235413Y-82964938D01*
X131235403Y-82964936D01*
X131000001Y-82944341D01*
X130999999Y-82944341D01*
X130764596Y-82964936D01*
X130764586Y-82964938D01*
X130536344Y-83026094D01*
X130536335Y-83026098D01*
X130322171Y-83125964D01*
X130322169Y-83125965D01*
X130128600Y-83261503D01*
X130006673Y-83383430D01*
X129945350Y-83416914D01*
X129875658Y-83411930D01*
X129819725Y-83370058D01*
X129802810Y-83339081D01*
X129753797Y-83207671D01*
X129753793Y-83207664D01*
X129667547Y-83092455D01*
X129667544Y-83092452D01*
X129552335Y-83006206D01*
X129552328Y-83006202D01*
X129417482Y-82955908D01*
X129417483Y-82955908D01*
X129357883Y-82949501D01*
X129357881Y-82949500D01*
X129357873Y-82949500D01*
X129357864Y-82949500D01*
X127562129Y-82949500D01*
X127562123Y-82949501D01*
X127502516Y-82955908D01*
X127367671Y-83006202D01*
X127367664Y-83006206D01*
X127252455Y-83092452D01*
X127252452Y-83092455D01*
X127166206Y-83207664D01*
X127166202Y-83207671D01*
X127115908Y-83342517D01*
X127109501Y-83402116D01*
X127109500Y-83402135D01*
X127109500Y-85197870D01*
X127109501Y-85197876D01*
X127115908Y-85257483D01*
X127166202Y-85392328D01*
X127166206Y-85392335D01*
X127252452Y-85507544D01*
X127252455Y-85507547D01*
X127367664Y-85593793D01*
X127367671Y-85593797D01*
X127499081Y-85642810D01*
X127555015Y-85684681D01*
X127579432Y-85750145D01*
X127564580Y-85818418D01*
X127543430Y-85846673D01*
X127421503Y-85968600D01*
X127285965Y-86162169D01*
X127285964Y-86162171D01*
X127186098Y-86376335D01*
X127186094Y-86376344D01*
X127124938Y-86604586D01*
X127124936Y-86604596D01*
X127104341Y-86839999D01*
X127104341Y-86840000D01*
X127124936Y-87075403D01*
X127124938Y-87075413D01*
X127186094Y-87303655D01*
X127186096Y-87303659D01*
X127186097Y-87303663D01*
X127242039Y-87423631D01*
X127285965Y-87517830D01*
X127285967Y-87517834D01*
X127357160Y-87619507D01*
X127421501Y-87711396D01*
X127421506Y-87711402D01*
X127588597Y-87878493D01*
X127588603Y-87878498D01*
X127774158Y-88008425D01*
X127817783Y-88063002D01*
X127824977Y-88132500D01*
X127793454Y-88194855D01*
X127774158Y-88211575D01*
X127588597Y-88341505D01*
X127421505Y-88508597D01*
X127285965Y-88702169D01*
X127285964Y-88702171D01*
X127186098Y-88916335D01*
X127186094Y-88916344D01*
X127124938Y-89144586D01*
X127124936Y-89144596D01*
X127104341Y-89379999D01*
X127104341Y-89380000D01*
X127124936Y-89615403D01*
X127124938Y-89615413D01*
X127186094Y-89843655D01*
X127186096Y-89843659D01*
X127186097Y-89843663D01*
X127266004Y-90015023D01*
X127285965Y-90057830D01*
X127285967Y-90057834D01*
X127349013Y-90147872D01*
X127421501Y-90251396D01*
X127421506Y-90251402D01*
X127588597Y-90418493D01*
X127588603Y-90418498D01*
X127774158Y-90548425D01*
X127817783Y-90603002D01*
X127824977Y-90672500D01*
X127793454Y-90734855D01*
X127774158Y-90751575D01*
X127588597Y-90881505D01*
X127421505Y-91048597D01*
X127285965Y-91242169D01*
X127285964Y-91242171D01*
X127186098Y-91456335D01*
X127186094Y-91456344D01*
X127124938Y-91684586D01*
X127124936Y-91684596D01*
X127104341Y-91919999D01*
X127104341Y-91920000D01*
X127124936Y-92155403D01*
X127124938Y-92155413D01*
X127186094Y-92383655D01*
X127186096Y-92383659D01*
X127186097Y-92383663D01*
X127240579Y-92500500D01*
X127285965Y-92597830D01*
X127285967Y-92597834D01*
X127375363Y-92725504D01*
X127421501Y-92791396D01*
X127421506Y-92791402D01*
X127588597Y-92958493D01*
X127588603Y-92958498D01*
X127774158Y-93088425D01*
X127817783Y-93143002D01*
X127824977Y-93212500D01*
X127793454Y-93274855D01*
X127774158Y-93291575D01*
X127588597Y-93421505D01*
X127421505Y-93588597D01*
X127285965Y-93782169D01*
X127285964Y-93782171D01*
X127186098Y-93996335D01*
X127186094Y-93996344D01*
X127124938Y-94224586D01*
X127124936Y-94224596D01*
X127104341Y-94459999D01*
X127104341Y-94460000D01*
X127124936Y-94695403D01*
X127124938Y-94695413D01*
X127186094Y-94923655D01*
X127186096Y-94923659D01*
X127186097Y-94923663D01*
X127256384Y-95074394D01*
X127285965Y-95137830D01*
X127285967Y-95137834D01*
X127357561Y-95240080D01*
X127421501Y-95331396D01*
X127421506Y-95331402D01*
X127588597Y-95498493D01*
X127588603Y-95498498D01*
X127774158Y-95628425D01*
X127817783Y-95683002D01*
X127824977Y-95752500D01*
X127793454Y-95814855D01*
X127774158Y-95831575D01*
X127588597Y-95961505D01*
X127421505Y-96128597D01*
X127285965Y-96322169D01*
X127285964Y-96322171D01*
X127186098Y-96536335D01*
X127186094Y-96536344D01*
X127124938Y-96764586D01*
X127124936Y-96764596D01*
X127104341Y-96999999D01*
X127104341Y-97000000D01*
X127124936Y-97235403D01*
X127124938Y-97235413D01*
X127186094Y-97463655D01*
X127186096Y-97463659D01*
X127186097Y-97463663D01*
X127266004Y-97635023D01*
X127285965Y-97677830D01*
X127285967Y-97677834D01*
X127374052Y-97803631D01*
X127421505Y-97871401D01*
X127588599Y-98038495D01*
X127685384Y-98106265D01*
X127782165Y-98174032D01*
X127782167Y-98174033D01*
X127782170Y-98174035D01*
X127996337Y-98273903D01*
X128224592Y-98335063D01*
X128412918Y-98351539D01*
X128459999Y-98355659D01*
X128460000Y-98355659D01*
X128460001Y-98355659D01*
X128499234Y-98352226D01*
X128695408Y-98335063D01*
X128923663Y-98273903D01*
X129137830Y-98174035D01*
X129331401Y-98038495D01*
X129498495Y-97871401D01*
X129628425Y-97685842D01*
X129683002Y-97642217D01*
X129752500Y-97635023D01*
X129814855Y-97666546D01*
X129831575Y-97685842D01*
X129961500Y-97871395D01*
X129961505Y-97871401D01*
X130128599Y-98038495D01*
X130225384Y-98106265D01*
X130322165Y-98174032D01*
X130322167Y-98174033D01*
X130322170Y-98174035D01*
X130536337Y-98273903D01*
X130764592Y-98335063D01*
X130952918Y-98351539D01*
X130999999Y-98355659D01*
X131000000Y-98355659D01*
X131000001Y-98355659D01*
X131039234Y-98352226D01*
X131235408Y-98335063D01*
X131463663Y-98273903D01*
X131677830Y-98174035D01*
X131804377Y-98085425D01*
X131870583Y-98063099D01*
X131938350Y-98080109D01*
X131986163Y-98131057D01*
X131999500Y-98187001D01*
X131999500Y-107493039D01*
X131998720Y-107506922D01*
X131988541Y-107597264D01*
X131982363Y-107624332D01*
X131954649Y-107703537D01*
X131942602Y-107728552D01*
X131897957Y-107799604D01*
X131880644Y-107821313D01*
X131821313Y-107880644D01*
X131799605Y-107897956D01*
X131728558Y-107942599D01*
X131703538Y-107954648D01*
X131624333Y-107982362D01*
X131597265Y-107988540D01*
X131517076Y-107997576D01*
X131506922Y-107998720D01*
X131493039Y-107999500D01*
X121366887Y-107999500D01*
X121299848Y-107979815D01*
X121254093Y-107927011D01*
X121244149Y-107857853D01*
X121273174Y-107794297D01*
X121279206Y-107787819D01*
X121632916Y-107434108D01*
X122480963Y-106586060D01*
X122480966Y-106586059D01*
X122586059Y-106480966D01*
X122668629Y-106357390D01*
X122725505Y-106220080D01*
X122754500Y-106074312D01*
X122754500Y-102000446D01*
X122754501Y-102000425D01*
X122754501Y-101845685D01*
X122725506Y-101699926D01*
X122725505Y-101699925D01*
X122725505Y-101699921D01*
X122668630Y-101562611D01*
X122586059Y-101439034D01*
X122586057Y-101439031D01*
X122586056Y-101439030D01*
X119113206Y-97966181D01*
X119079721Y-97904858D01*
X119084705Y-97835166D01*
X119126577Y-97779233D01*
X119192041Y-97754816D01*
X119200887Y-97754500D01*
X121636113Y-97754500D01*
X121703152Y-97774185D01*
X121723794Y-97790819D01*
X123709181Y-99776205D01*
X123742666Y-99837528D01*
X123745500Y-99863886D01*
X123745500Y-103956138D01*
X123725815Y-104023177D01*
X123692626Y-104057710D01*
X123660861Y-104079953D01*
X123499951Y-104240862D01*
X123369432Y-104427265D01*
X123369431Y-104427267D01*
X123273261Y-104633502D01*
X123273258Y-104633511D01*
X123214366Y-104853302D01*
X123214364Y-104853313D01*
X123194532Y-105079998D01*
X123194532Y-105080001D01*
X123214364Y-105306686D01*
X123214366Y-105306697D01*
X123273258Y-105526488D01*
X123273261Y-105526497D01*
X123369431Y-105732732D01*
X123369432Y-105732734D01*
X123499954Y-105919141D01*
X123660858Y-106080045D01*
X123660861Y-106080047D01*
X123847266Y-106210568D01*
X124053504Y-106306739D01*
X124273308Y-106365635D01*
X124435230Y-106379801D01*
X124499998Y-106385468D01*
X124500000Y-106385468D01*
X124500002Y-106385468D01*
X124556673Y-106380509D01*
X124726692Y-106365635D01*
X124946496Y-106306739D01*
X125152734Y-106210568D01*
X125339139Y-106080047D01*
X125500047Y-105919139D01*
X125630568Y-105732734D01*
X125726739Y-105526496D01*
X125785635Y-105306692D01*
X125805468Y-105080000D01*
X125785635Y-104853308D01*
X125726739Y-104633504D01*
X125630568Y-104427266D01*
X125509597Y-104254500D01*
X125500048Y-104240862D01*
X125421657Y-104162471D01*
X125339139Y-104079953D01*
X125307374Y-104057710D01*
X125263751Y-104003135D01*
X125254500Y-103956138D01*
X125254500Y-99580446D01*
X125254501Y-99580425D01*
X125254501Y-99425685D01*
X125225506Y-99279926D01*
X125225505Y-99279925D01*
X125225505Y-99279921D01*
X125168630Y-99142611D01*
X125141230Y-99101605D01*
X125086059Y-99019034D01*
X125086057Y-99019032D01*
X125086055Y-99019029D01*
X124976647Y-98909621D01*
X124976624Y-98909600D01*
X122480969Y-96413943D01*
X122480968Y-96413942D01*
X122427924Y-96378500D01*
X122357389Y-96331370D01*
X122357386Y-96331368D01*
X122357385Y-96331368D01*
X122276955Y-96298053D01*
X122220080Y-96274495D01*
X122195894Y-96269684D01*
X122074314Y-96245499D01*
X122074312Y-96245499D01*
X121925688Y-96245499D01*
X121919574Y-96245499D01*
X121919554Y-96245500D01*
X120267620Y-96245500D01*
X120200581Y-96225815D01*
X120154826Y-96173011D01*
X120144882Y-96103853D01*
X120173907Y-96040297D01*
X120196497Y-96019925D01*
X120339139Y-95920047D01*
X120500047Y-95759139D01*
X120630568Y-95572734D01*
X120726739Y-95366496D01*
X120785635Y-95146692D01*
X120804415Y-94932032D01*
X120805468Y-94920001D01*
X120805468Y-94919998D01*
X120796065Y-94812524D01*
X120785635Y-94693308D01*
X120738944Y-94519054D01*
X120726741Y-94473511D01*
X120726738Y-94473502D01*
X120692915Y-94400969D01*
X120630568Y-94267266D01*
X120543287Y-94142614D01*
X120500048Y-94080862D01*
X120434285Y-94015099D01*
X120339139Y-93919953D01*
X120307374Y-93897710D01*
X120263751Y-93843135D01*
X120254500Y-93796138D01*
X120254500Y-93580446D01*
X120254501Y-93580425D01*
X120254501Y-93425685D01*
X120225506Y-93279926D01*
X120225505Y-93279925D01*
X120225505Y-93279921D01*
X120168630Y-93142611D01*
X120086059Y-93019034D01*
X120086057Y-93019031D01*
X116636818Y-89569792D01*
X116603333Y-89508469D01*
X116600499Y-89482111D01*
X116600499Y-89000000D01*
X119355052Y-89000000D01*
X119374812Y-89251072D01*
X119433603Y-89495956D01*
X119529980Y-89728631D01*
X119661568Y-89943362D01*
X119662266Y-89944179D01*
X120436212Y-89170234D01*
X120447482Y-89212292D01*
X120519890Y-89337708D01*
X120622292Y-89440110D01*
X120747708Y-89512518D01*
X120789763Y-89523787D01*
X120015819Y-90297732D01*
X120015819Y-90297733D01*
X120016634Y-90298429D01*
X120231368Y-90430019D01*
X120464043Y-90526396D01*
X120708927Y-90585187D01*
X120960000Y-90604947D01*
X121211072Y-90585187D01*
X121455956Y-90526396D01*
X121688627Y-90430020D01*
X121820714Y-90349077D01*
X121888160Y-90330832D01*
X121954763Y-90351948D01*
X121984771Y-90380492D01*
X122042455Y-90457547D01*
X122157664Y-90543793D01*
X122157671Y-90543797D01*
X122170080Y-90548425D01*
X122292517Y-90594091D01*
X122352127Y-90600500D01*
X122621501Y-90600499D01*
X122688539Y-90620183D01*
X122734294Y-90672987D01*
X122745500Y-90724499D01*
X122745500Y-93840552D01*
X122745499Y-93840578D01*
X122745499Y-93994313D01*
X122754214Y-94038126D01*
X122766423Y-94099500D01*
X122772201Y-94128545D01*
X122774495Y-94140081D01*
X122781173Y-94156202D01*
X122781174Y-94156204D01*
X122831368Y-94277385D01*
X122831372Y-94277392D01*
X122913942Y-94400968D01*
X122913943Y-94400969D01*
X123172827Y-94659852D01*
X123206312Y-94721175D01*
X123208674Y-94758339D01*
X123194532Y-94919996D01*
X123194532Y-94920001D01*
X123214364Y-95146686D01*
X123214366Y-95146697D01*
X123273258Y-95366488D01*
X123273261Y-95366497D01*
X123369431Y-95572732D01*
X123369432Y-95572734D01*
X123499954Y-95759141D01*
X123660858Y-95920045D01*
X123660861Y-95920047D01*
X123847266Y-96050568D01*
X124053504Y-96146739D01*
X124273308Y-96205635D01*
X124435230Y-96219801D01*
X124499998Y-96225468D01*
X124500000Y-96225468D01*
X124500002Y-96225468D01*
X124561688Y-96220071D01*
X124726692Y-96205635D01*
X124946496Y-96146739D01*
X125152734Y-96050568D01*
X125339139Y-95920047D01*
X125500047Y-95759139D01*
X125630568Y-95572734D01*
X125726739Y-95366496D01*
X125785635Y-95146692D01*
X125804415Y-94932032D01*
X125805468Y-94920001D01*
X125805468Y-94919998D01*
X125796065Y-94812524D01*
X125785635Y-94693308D01*
X125738944Y-94519054D01*
X125726741Y-94473511D01*
X125726738Y-94473502D01*
X125692915Y-94400969D01*
X125630568Y-94267266D01*
X125517585Y-94105908D01*
X125500045Y-94080858D01*
X125339141Y-93919954D01*
X125152734Y-93789432D01*
X125152732Y-93789431D01*
X124946497Y-93693261D01*
X124946488Y-93693258D01*
X124726697Y-93634366D01*
X124726693Y-93634365D01*
X124726692Y-93634365D01*
X124726691Y-93634364D01*
X124726686Y-93634364D01*
X124500002Y-93614532D01*
X124499996Y-93614532D01*
X124389306Y-93624215D01*
X124320806Y-93610448D01*
X124270624Y-93561832D01*
X124254500Y-93500687D01*
X124254500Y-90724499D01*
X124274185Y-90657460D01*
X124326989Y-90611705D01*
X124378500Y-90600499D01*
X124647871Y-90600499D01*
X124647872Y-90600499D01*
X124707483Y-90594091D01*
X124842331Y-90543796D01*
X124957546Y-90457546D01*
X125043796Y-90342331D01*
X125094091Y-90207483D01*
X125100500Y-90147873D01*
X125100499Y-87852128D01*
X125094091Y-87792517D01*
X125063834Y-87711395D01*
X125043797Y-87657671D01*
X125043793Y-87657664D01*
X124957547Y-87542455D01*
X124957544Y-87542452D01*
X124842335Y-87456206D01*
X124842328Y-87456202D01*
X124707482Y-87405908D01*
X124707483Y-87405908D01*
X124647883Y-87399501D01*
X124647881Y-87399500D01*
X124647873Y-87399500D01*
X124647865Y-87399500D01*
X123943574Y-87399500D01*
X123876535Y-87379815D01*
X123830780Y-87327011D01*
X123820836Y-87257853D01*
X123849861Y-87194297D01*
X123874683Y-87172398D01*
X124010289Y-87081789D01*
X124121786Y-86970292D01*
X124121789Y-86970289D01*
X124209394Y-86839179D01*
X124269737Y-86693497D01*
X124300500Y-86538842D01*
X124300500Y-86381158D01*
X124300500Y-86381155D01*
X124300499Y-86381153D01*
X124269738Y-86226510D01*
X124269737Y-86226503D01*
X124239771Y-86154158D01*
X124209397Y-86080827D01*
X124209390Y-86080814D01*
X124121789Y-85949711D01*
X124121786Y-85949707D01*
X124010292Y-85838213D01*
X124010288Y-85838210D01*
X123879185Y-85750609D01*
X123879172Y-85750602D01*
X123733501Y-85690264D01*
X123733489Y-85690261D01*
X123578845Y-85659500D01*
X123578842Y-85659500D01*
X123421158Y-85659500D01*
X123421155Y-85659500D01*
X123266510Y-85690261D01*
X123266498Y-85690264D01*
X123120827Y-85750602D01*
X123120814Y-85750609D01*
X122989711Y-85838210D01*
X122989707Y-85838213D01*
X122878213Y-85949707D01*
X122878210Y-85949711D01*
X122790609Y-86080814D01*
X122790602Y-86080827D01*
X122730264Y-86226498D01*
X122730261Y-86226510D01*
X122699500Y-86381153D01*
X122699500Y-86538846D01*
X122730261Y-86693489D01*
X122730264Y-86693501D01*
X122790602Y-86839172D01*
X122790609Y-86839185D01*
X122878210Y-86970288D01*
X122878213Y-86970292D01*
X122989707Y-87081786D01*
X122989711Y-87081789D01*
X123125316Y-87172398D01*
X123170121Y-87226010D01*
X123178828Y-87295335D01*
X123148674Y-87358363D01*
X123089230Y-87395082D01*
X123056425Y-87399500D01*
X122352129Y-87399500D01*
X122352123Y-87399501D01*
X122292516Y-87405908D01*
X122157671Y-87456202D01*
X122157664Y-87456206D01*
X122042455Y-87542452D01*
X121984771Y-87619507D01*
X121928836Y-87661378D01*
X121859145Y-87666361D01*
X121820715Y-87650922D01*
X121688631Y-87569980D01*
X121455956Y-87473603D01*
X121288170Y-87433322D01*
X121227578Y-87398531D01*
X121195414Y-87336505D01*
X121201890Y-87266936D01*
X121244950Y-87211912D01*
X121269658Y-87198189D01*
X121339179Y-87169394D01*
X121470289Y-87081789D01*
X121581789Y-86970289D01*
X121669394Y-86839179D01*
X121729737Y-86693497D01*
X121760500Y-86538842D01*
X121760500Y-86381158D01*
X121760500Y-86381155D01*
X121760499Y-86381153D01*
X121729738Y-86226510D01*
X121729737Y-86226503D01*
X121699771Y-86154158D01*
X121669397Y-86080827D01*
X121669390Y-86080814D01*
X121581789Y-85949711D01*
X121581786Y-85949707D01*
X121470292Y-85838213D01*
X121470288Y-85838210D01*
X121339185Y-85750609D01*
X121339172Y-85750602D01*
X121193501Y-85690264D01*
X121193489Y-85690261D01*
X121038845Y-85659500D01*
X121038842Y-85659500D01*
X120881158Y-85659500D01*
X120881155Y-85659500D01*
X120726510Y-85690261D01*
X120726498Y-85690264D01*
X120580827Y-85750602D01*
X120580814Y-85750609D01*
X120449711Y-85838210D01*
X120449707Y-85838213D01*
X120338213Y-85949707D01*
X120338210Y-85949711D01*
X120250609Y-86080814D01*
X120250602Y-86080827D01*
X120190264Y-86226498D01*
X120190261Y-86226510D01*
X120159500Y-86381153D01*
X120159500Y-86538846D01*
X120190261Y-86693489D01*
X120190264Y-86693501D01*
X120250602Y-86839172D01*
X120250609Y-86839185D01*
X120338210Y-86970288D01*
X120338213Y-86970292D01*
X120449707Y-87081786D01*
X120449711Y-87081789D01*
X120580814Y-87169390D01*
X120580818Y-87169392D01*
X120580821Y-87169394D01*
X120650336Y-87198188D01*
X120704738Y-87242027D01*
X120726803Y-87308321D01*
X120709524Y-87376020D01*
X120658388Y-87423631D01*
X120631829Y-87433322D01*
X120464043Y-87473603D01*
X120231368Y-87569980D01*
X120016637Y-87701567D01*
X120015819Y-87702266D01*
X120789765Y-88476212D01*
X120747708Y-88487482D01*
X120622292Y-88559890D01*
X120519890Y-88662292D01*
X120447482Y-88787708D01*
X120436212Y-88829765D01*
X119662266Y-88055819D01*
X119661567Y-88056637D01*
X119529980Y-88271368D01*
X119433603Y-88504043D01*
X119374812Y-88748927D01*
X119355052Y-89000000D01*
X116600499Y-89000000D01*
X116600499Y-87852129D01*
X116600498Y-87852123D01*
X116594091Y-87792516D01*
X116543797Y-87657671D01*
X116543793Y-87657664D01*
X116457547Y-87542455D01*
X116457544Y-87542452D01*
X116342335Y-87456206D01*
X116342328Y-87456202D01*
X116207482Y-87405908D01*
X116207483Y-87405908D01*
X116147883Y-87399501D01*
X116147881Y-87399500D01*
X116147873Y-87399500D01*
X116147865Y-87399500D01*
X115443574Y-87399500D01*
X115376535Y-87379815D01*
X115330780Y-87327011D01*
X115320836Y-87257853D01*
X115349861Y-87194297D01*
X115374683Y-87172398D01*
X115510289Y-87081789D01*
X115621786Y-86970292D01*
X115621789Y-86970289D01*
X115709394Y-86839179D01*
X115769737Y-86693497D01*
X115800500Y-86538842D01*
X115800500Y-86381158D01*
X115800500Y-86381155D01*
X115800499Y-86381153D01*
X115769738Y-86226510D01*
X115769737Y-86226503D01*
X115739771Y-86154158D01*
X115709397Y-86080827D01*
X115709390Y-86080814D01*
X115621789Y-85949711D01*
X115621786Y-85949707D01*
X115510292Y-85838213D01*
X115510288Y-85838210D01*
X115379185Y-85750609D01*
X115379172Y-85750602D01*
X115233501Y-85690264D01*
X115233489Y-85690261D01*
X115078845Y-85659500D01*
X115078842Y-85659500D01*
X114921158Y-85659500D01*
X114921155Y-85659500D01*
X114766510Y-85690261D01*
X114766498Y-85690264D01*
X114620827Y-85750602D01*
X114620814Y-85750609D01*
X114489711Y-85838210D01*
X114489707Y-85838213D01*
X114378213Y-85949707D01*
X114378210Y-85949711D01*
X114290609Y-86080814D01*
X114290602Y-86080827D01*
X114230264Y-86226498D01*
X114230261Y-86226510D01*
X114199500Y-86381153D01*
X114199500Y-86538846D01*
X114230261Y-86693489D01*
X114230264Y-86693501D01*
X114290602Y-86839172D01*
X114290609Y-86839185D01*
X114378210Y-86970288D01*
X114378213Y-86970292D01*
X114489707Y-87081786D01*
X114489711Y-87081789D01*
X114625316Y-87172398D01*
X114670121Y-87226010D01*
X114678828Y-87295335D01*
X114648674Y-87358363D01*
X114589230Y-87395082D01*
X114556425Y-87399500D01*
X113852129Y-87399500D01*
X113852123Y-87399501D01*
X113792516Y-87405908D01*
X113657671Y-87456202D01*
X113657664Y-87456206D01*
X113542455Y-87542452D01*
X113484771Y-87619507D01*
X113428836Y-87661378D01*
X113359145Y-87666361D01*
X113320715Y-87650922D01*
X113188631Y-87569980D01*
X112955956Y-87473603D01*
X112788170Y-87433322D01*
X112727578Y-87398531D01*
X112695414Y-87336505D01*
X112701890Y-87266936D01*
X112744950Y-87211912D01*
X112769658Y-87198189D01*
X112839179Y-87169394D01*
X112970289Y-87081789D01*
X113081789Y-86970289D01*
X113169394Y-86839179D01*
X113229737Y-86693497D01*
X113260500Y-86538842D01*
X113260500Y-86381158D01*
X113260500Y-86381155D01*
X113260499Y-86381153D01*
X113229738Y-86226510D01*
X113229737Y-86226503D01*
X113199771Y-86154158D01*
X113169397Y-86080827D01*
X113169390Y-86080814D01*
X113081789Y-85949711D01*
X113081786Y-85949707D01*
X112970292Y-85838213D01*
X112970288Y-85838210D01*
X112839185Y-85750609D01*
X112839172Y-85750602D01*
X112693501Y-85690264D01*
X112693489Y-85690261D01*
X112538845Y-85659500D01*
X112538842Y-85659500D01*
X112381158Y-85659500D01*
X112381155Y-85659500D01*
X112226510Y-85690261D01*
X112226498Y-85690264D01*
X112080827Y-85750602D01*
X112080814Y-85750609D01*
X111949711Y-85838210D01*
X111949707Y-85838213D01*
X111838213Y-85949707D01*
X111838210Y-85949711D01*
X111750609Y-86080814D01*
X111750602Y-86080827D01*
X111690264Y-86226498D01*
X111690261Y-86226510D01*
X111659500Y-86381153D01*
X111659500Y-86538846D01*
X111690261Y-86693489D01*
X111690264Y-86693501D01*
X111750602Y-86839172D01*
X111750609Y-86839185D01*
X111838210Y-86970288D01*
X111838213Y-86970292D01*
X111949707Y-87081786D01*
X111949711Y-87081789D01*
X112080814Y-87169390D01*
X112080818Y-87169392D01*
X112080821Y-87169394D01*
X112150336Y-87198188D01*
X112204738Y-87242027D01*
X112226803Y-87308321D01*
X112209524Y-87376020D01*
X112158388Y-87423631D01*
X112131829Y-87433322D01*
X111964043Y-87473603D01*
X111731368Y-87569980D01*
X111516637Y-87701567D01*
X111515819Y-87702266D01*
X112289765Y-88476212D01*
X112247708Y-88487482D01*
X112122292Y-88559890D01*
X112019890Y-88662292D01*
X111947482Y-88787708D01*
X111936212Y-88829765D01*
X111162266Y-88055819D01*
X111161567Y-88056637D01*
X111029980Y-88271368D01*
X110993061Y-88360500D01*
X110949220Y-88414903D01*
X110882925Y-88436968D01*
X110815226Y-88419689D01*
X110767616Y-88368551D01*
X110754500Y-88313047D01*
X110754500Y-82735435D01*
X110754501Y-82735414D01*
X110754501Y-82580674D01*
X110730315Y-82459094D01*
X110730314Y-82459087D01*
X110725507Y-82434919D01*
X110725506Y-82434918D01*
X110725505Y-82434909D01*
X110707120Y-82390525D01*
X110701968Y-82378086D01*
X110701958Y-82378065D01*
X110701946Y-82378034D01*
X110668630Y-82297600D01*
X110598863Y-82193186D01*
X110586059Y-82174023D01*
X110480966Y-82068930D01*
X110480965Y-82068929D01*
X110476635Y-82064599D01*
X110476624Y-82064589D01*
X110005165Y-81593129D01*
X109971680Y-81531806D01*
X109976664Y-81462114D01*
X110018536Y-81406181D01*
X110082037Y-81381920D01*
X110160419Y-81375063D01*
X110388674Y-81313903D01*
X110602841Y-81214035D01*
X110796412Y-81078495D01*
X110963506Y-80911401D01*
X111093436Y-80725842D01*
X111148013Y-80682217D01*
X111217511Y-80675023D01*
X111279866Y-80706546D01*
X111296586Y-80725842D01*
X111426511Y-80911395D01*
X111426516Y-80911401D01*
X111593610Y-81078495D01*
X111690395Y-81146265D01*
X111787176Y-81214032D01*
X111787178Y-81214033D01*
X111787181Y-81214035D01*
X112001348Y-81313903D01*
X112229603Y-81375063D01*
X112406045Y-81390500D01*
X112465010Y-81395659D01*
X112465011Y-81395659D01*
X112465012Y-81395659D01*
X112523977Y-81390500D01*
X112700419Y-81375063D01*
X112928674Y-81313903D01*
X113142841Y-81214035D01*
X113336412Y-81078495D01*
X113503506Y-80911401D01*
X113633436Y-80725842D01*
X113688013Y-80682217D01*
X113757511Y-80675023D01*
X113819866Y-80706546D01*
X113836586Y-80725842D01*
X113966511Y-80911395D01*
X113966516Y-80911401D01*
X114133610Y-81078495D01*
X114230395Y-81146265D01*
X114327176Y-81214032D01*
X114327178Y-81214033D01*
X114327181Y-81214035D01*
X114541348Y-81313903D01*
X114769603Y-81375063D01*
X114946045Y-81390500D01*
X115005010Y-81395659D01*
X115005011Y-81395659D01*
X115005012Y-81395659D01*
X115063977Y-81390500D01*
X115240419Y-81375063D01*
X115468674Y-81313903D01*
X115682841Y-81214035D01*
X115876412Y-81078495D01*
X116043506Y-80911401D01*
X116173436Y-80725842D01*
X116228013Y-80682217D01*
X116297511Y-80675023D01*
X116359866Y-80706546D01*
X116376586Y-80725842D01*
X116506511Y-80911395D01*
X116506516Y-80911401D01*
X116673610Y-81078495D01*
X116770395Y-81146265D01*
X116867176Y-81214032D01*
X116867178Y-81214033D01*
X116867181Y-81214035D01*
X117081348Y-81313903D01*
X117309603Y-81375063D01*
X117486045Y-81390500D01*
X117545010Y-81395659D01*
X117545011Y-81395659D01*
X117545012Y-81395659D01*
X117603977Y-81390500D01*
X117780419Y-81375063D01*
X118008674Y-81313903D01*
X118222841Y-81214035D01*
X118416412Y-81078495D01*
X118583506Y-80911401D01*
X118713436Y-80725842D01*
X118768013Y-80682217D01*
X118837511Y-80675023D01*
X118899866Y-80706546D01*
X118916586Y-80725842D01*
X119046511Y-80911395D01*
X119046516Y-80911401D01*
X119213610Y-81078495D01*
X119310395Y-81146265D01*
X119407176Y-81214032D01*
X119407178Y-81214033D01*
X119407181Y-81214035D01*
X119621348Y-81313903D01*
X119849603Y-81375063D01*
X120026045Y-81390500D01*
X120085010Y-81395659D01*
X120085011Y-81395659D01*
X120085012Y-81395659D01*
X120143977Y-81390500D01*
X120320419Y-81375063D01*
X120548674Y-81313903D01*
X120762841Y-81214035D01*
X120956412Y-81078495D01*
X121123506Y-80911401D01*
X121253436Y-80725842D01*
X121308013Y-80682217D01*
X121377511Y-80675023D01*
X121439866Y-80706546D01*
X121456586Y-80725842D01*
X121586511Y-80911395D01*
X121586516Y-80911401D01*
X121753610Y-81078495D01*
X121850395Y-81146265D01*
X121947176Y-81214032D01*
X121947178Y-81214033D01*
X121947181Y-81214035D01*
X122161348Y-81313903D01*
X122389603Y-81375063D01*
X122566045Y-81390500D01*
X122625010Y-81395659D01*
X122625011Y-81395659D01*
X122625012Y-81395659D01*
X122683977Y-81390500D01*
X122860419Y-81375063D01*
X123088674Y-81313903D01*
X123302841Y-81214035D01*
X123496412Y-81078495D01*
X123663506Y-80911401D01*
X123793436Y-80725842D01*
X123848013Y-80682217D01*
X123917511Y-80675023D01*
X123979866Y-80706546D01*
X123996586Y-80725842D01*
X124126511Y-80911395D01*
X124126516Y-80911401D01*
X124293610Y-81078495D01*
X124390395Y-81146265D01*
X124487176Y-81214032D01*
X124487178Y-81214033D01*
X124487181Y-81214035D01*
X124701348Y-81313903D01*
X124929603Y-81375063D01*
X125106045Y-81390500D01*
X125165010Y-81395659D01*
X125165011Y-81395659D01*
X125165012Y-81395659D01*
X125223977Y-81390500D01*
X125400419Y-81375063D01*
X125628674Y-81313903D01*
X125842841Y-81214035D01*
X126036412Y-81078495D01*
X126203506Y-80911401D01*
X126339046Y-80717830D01*
X126438914Y-80503663D01*
X126500074Y-80275408D01*
X126520670Y-80040000D01*
X126500074Y-79804592D01*
X126438914Y-79576337D01*
X126339046Y-79362171D01*
X126333742Y-79354595D01*
X126203505Y-79168597D01*
X126036413Y-79001506D01*
X126036407Y-79001501D01*
X125850853Y-78871575D01*
X125807228Y-78816998D01*
X125800034Y-78747500D01*
X125831557Y-78685145D01*
X125850853Y-78668425D01*
X125963065Y-78589853D01*
X126036412Y-78538495D01*
X126203506Y-78371401D01*
X126339046Y-78177830D01*
X126438914Y-77963663D01*
X126500074Y-77735408D01*
X126520670Y-77500000D01*
X126500074Y-77264592D01*
X126438914Y-77036337D01*
X126339046Y-76822171D01*
X126333742Y-76814595D01*
X126203505Y-76628597D01*
X126036413Y-76461506D01*
X126036406Y-76461501D01*
X125842845Y-76325967D01*
X125842841Y-76325965D01*
X125842839Y-76325964D01*
X125628674Y-76226097D01*
X125628670Y-76226096D01*
X125628666Y-76226094D01*
X125400424Y-76164938D01*
X125400414Y-76164936D01*
X125165012Y-76144341D01*
X125165010Y-76144341D01*
X124929607Y-76164936D01*
X124929597Y-76164938D01*
X124701355Y-76226094D01*
X124701346Y-76226098D01*
X124487182Y-76325964D01*
X124487180Y-76325965D01*
X124293608Y-76461505D01*
X124126516Y-76628597D01*
X123996586Y-76814158D01*
X123942009Y-76857783D01*
X123872511Y-76864977D01*
X123810156Y-76833454D01*
X123793436Y-76814158D01*
X123663505Y-76628597D01*
X123496413Y-76461506D01*
X123496406Y-76461501D01*
X123302845Y-76325967D01*
X123302841Y-76325965D01*
X123302839Y-76325964D01*
X123088674Y-76226097D01*
X123088670Y-76226096D01*
X123088666Y-76226094D01*
X122860424Y-76164938D01*
X122860414Y-76164936D01*
X122625012Y-76144341D01*
X122625010Y-76144341D01*
X122389607Y-76164936D01*
X122389597Y-76164938D01*
X122161355Y-76226094D01*
X122161346Y-76226098D01*
X121947182Y-76325964D01*
X121947180Y-76325965D01*
X121753608Y-76461505D01*
X121586516Y-76628597D01*
X121456586Y-76814158D01*
X121402009Y-76857783D01*
X121332511Y-76864977D01*
X121270156Y-76833454D01*
X121253436Y-76814158D01*
X121123505Y-76628597D01*
X120956413Y-76461506D01*
X120956406Y-76461501D01*
X120762845Y-76325967D01*
X120762841Y-76325965D01*
X120762839Y-76325964D01*
X120548674Y-76226097D01*
X120548670Y-76226096D01*
X120548666Y-76226094D01*
X120320424Y-76164938D01*
X120320414Y-76164936D01*
X120085012Y-76144341D01*
X120085010Y-76144341D01*
X119849607Y-76164936D01*
X119849597Y-76164938D01*
X119621355Y-76226094D01*
X119621346Y-76226098D01*
X119407182Y-76325964D01*
X119407180Y-76325965D01*
X119213608Y-76461505D01*
X119046516Y-76628597D01*
X118916586Y-76814158D01*
X118862009Y-76857783D01*
X118792511Y-76864977D01*
X118730156Y-76833454D01*
X118713436Y-76814158D01*
X118583505Y-76628597D01*
X118416413Y-76461506D01*
X118416406Y-76461501D01*
X118222845Y-76325967D01*
X118222841Y-76325965D01*
X118222839Y-76325964D01*
X118008674Y-76226097D01*
X118008670Y-76226096D01*
X118008666Y-76226094D01*
X117780424Y-76164938D01*
X117780414Y-76164936D01*
X117545012Y-76144341D01*
X117545010Y-76144341D01*
X117309607Y-76164936D01*
X117309597Y-76164938D01*
X117081355Y-76226094D01*
X117081346Y-76226098D01*
X116867182Y-76325964D01*
X116867180Y-76325965D01*
X116673608Y-76461505D01*
X116506516Y-76628597D01*
X116376586Y-76814158D01*
X116322009Y-76857783D01*
X116252511Y-76864977D01*
X116190156Y-76833454D01*
X116173436Y-76814158D01*
X116043505Y-76628597D01*
X115876413Y-76461506D01*
X115876406Y-76461501D01*
X115682845Y-76325967D01*
X115682841Y-76325965D01*
X115682839Y-76325964D01*
X115468674Y-76226097D01*
X115468670Y-76226096D01*
X115468666Y-76226094D01*
X115240424Y-76164938D01*
X115240414Y-76164936D01*
X115005012Y-76144341D01*
X115005010Y-76144341D01*
X114769607Y-76164936D01*
X114769597Y-76164938D01*
X114541355Y-76226094D01*
X114541346Y-76226098D01*
X114327182Y-76325964D01*
X114327180Y-76325965D01*
X114133608Y-76461505D01*
X113966516Y-76628597D01*
X113836586Y-76814158D01*
X113782009Y-76857783D01*
X113712511Y-76864977D01*
X113650156Y-76833454D01*
X113633436Y-76814158D01*
X113503505Y-76628597D01*
X113336413Y-76461506D01*
X113336406Y-76461501D01*
X113142845Y-76325967D01*
X113142841Y-76325965D01*
X113142839Y-76325964D01*
X112928674Y-76226097D01*
X112928670Y-76226096D01*
X112928666Y-76226094D01*
X112700424Y-76164938D01*
X112700414Y-76164936D01*
X112465012Y-76144341D01*
X112465010Y-76144341D01*
X112229607Y-76164936D01*
X112229597Y-76164938D01*
X112001355Y-76226094D01*
X112001346Y-76226098D01*
X111787182Y-76325964D01*
X111787180Y-76325965D01*
X111593608Y-76461505D01*
X111426516Y-76628597D01*
X111296586Y-76814158D01*
X111242009Y-76857783D01*
X111172511Y-76864977D01*
X111110156Y-76833454D01*
X111093436Y-76814158D01*
X110963505Y-76628597D01*
X110796413Y-76461506D01*
X110796406Y-76461501D01*
X110602845Y-76325967D01*
X110602841Y-76325965D01*
X110602839Y-76325964D01*
X110388674Y-76226097D01*
X110388670Y-76226096D01*
X110388666Y-76226094D01*
X110160424Y-76164938D01*
X110160414Y-76164936D01*
X109925012Y-76144341D01*
X109925010Y-76144341D01*
X109689607Y-76164936D01*
X109689597Y-76164938D01*
X109461355Y-76226094D01*
X109461346Y-76226098D01*
X109247182Y-76325964D01*
X109247180Y-76325965D01*
X109053608Y-76461505D01*
X108886516Y-76628597D01*
X108756586Y-76814158D01*
X108702009Y-76857783D01*
X108632511Y-76864977D01*
X108570156Y-76833454D01*
X108553436Y-76814158D01*
X108423505Y-76628597D01*
X108256413Y-76461506D01*
X108256406Y-76461501D01*
X108062845Y-76325967D01*
X108062841Y-76325965D01*
X108062839Y-76325964D01*
X107848674Y-76226097D01*
X107848670Y-76226096D01*
X107848666Y-76226094D01*
X107620424Y-76164938D01*
X107620414Y-76164936D01*
X107385012Y-76144341D01*
X107385010Y-76144341D01*
X107149607Y-76164936D01*
X107149597Y-76164938D01*
X106921355Y-76226094D01*
X106921346Y-76226098D01*
X106707182Y-76325964D01*
X106707180Y-76325965D01*
X106513608Y-76461505D01*
X106346516Y-76628597D01*
X106216586Y-76814158D01*
X106162009Y-76857783D01*
X106092511Y-76864977D01*
X106030156Y-76833454D01*
X106013436Y-76814158D01*
X105883505Y-76628597D01*
X105716413Y-76461506D01*
X105716406Y-76461501D01*
X105522845Y-76325967D01*
X105522841Y-76325965D01*
X105522839Y-76325964D01*
X105308674Y-76226097D01*
X105308670Y-76226096D01*
X105308666Y-76226094D01*
X105080424Y-76164938D01*
X105080414Y-76164936D01*
X104845012Y-76144341D01*
X104845010Y-76144341D01*
X104609607Y-76164936D01*
X104609597Y-76164938D01*
X104381355Y-76226094D01*
X104381346Y-76226098D01*
X104167182Y-76325964D01*
X104167180Y-76325965D01*
X103973608Y-76461505D01*
X103806516Y-76628597D01*
X103676586Y-76814158D01*
X103622009Y-76857783D01*
X103552511Y-76864977D01*
X103490156Y-76833454D01*
X103473436Y-76814158D01*
X103343505Y-76628597D01*
X103176413Y-76461506D01*
X103176406Y-76461501D01*
X102982845Y-76325967D01*
X102982841Y-76325965D01*
X102982839Y-76325964D01*
X102768674Y-76226097D01*
X102768670Y-76226096D01*
X102768666Y-76226094D01*
X102540424Y-76164938D01*
X102540414Y-76164936D01*
X102305012Y-76144341D01*
X102305010Y-76144341D01*
X102069607Y-76164936D01*
X102069597Y-76164938D01*
X101841355Y-76226094D01*
X101841346Y-76226098D01*
X101627182Y-76325964D01*
X101627180Y-76325965D01*
X101433608Y-76461505D01*
X101266519Y-76628594D01*
X101136280Y-76814595D01*
X101081703Y-76858219D01*
X101012204Y-76865412D01*
X100949850Y-76833890D01*
X100933130Y-76814594D01*
X100803124Y-76628926D01*
X100803119Y-76628920D01*
X100636093Y-76461894D01*
X100442589Y-76326399D01*
X100228503Y-76226570D01*
X100228497Y-76226567D01*
X100015011Y-76169364D01*
X100015011Y-77066988D01*
X99958004Y-77034075D01*
X99830837Y-77000000D01*
X99699185Y-77000000D01*
X99572018Y-77034075D01*
X99515011Y-77066988D01*
X99515011Y-76169364D01*
X99515010Y-76169364D01*
X99301524Y-76226567D01*
X99301518Y-76226570D01*
X99087433Y-76326399D01*
X99087431Y-76326400D01*
X98893937Y-76461886D01*
X98893931Y-76461891D01*
X98726902Y-76628920D01*
X98726901Y-76628922D01*
X98596891Y-76814595D01*
X98542314Y-76858219D01*
X98472815Y-76865412D01*
X98410461Y-76833890D01*
X98393741Y-76814594D01*
X98263505Y-76628597D01*
X98096413Y-76461506D01*
X98096406Y-76461501D01*
X97902845Y-76325967D01*
X97902841Y-76325965D01*
X97902839Y-76325964D01*
X97688674Y-76226097D01*
X97688670Y-76226096D01*
X97688666Y-76226094D01*
X97460424Y-76164938D01*
X97460414Y-76164936D01*
X97225012Y-76144341D01*
X97225010Y-76144341D01*
X96989607Y-76164936D01*
X96989597Y-76164938D01*
X96761355Y-76226094D01*
X96761346Y-76226098D01*
X96547182Y-76325964D01*
X96547180Y-76325965D01*
X96353608Y-76461505D01*
X96186516Y-76628597D01*
X96056586Y-76814158D01*
X96002009Y-76857783D01*
X95932511Y-76864977D01*
X95870156Y-76833454D01*
X95853436Y-76814158D01*
X95723505Y-76628597D01*
X95556413Y-76461506D01*
X95556406Y-76461501D01*
X95362845Y-76325967D01*
X95362841Y-76325965D01*
X95362839Y-76325964D01*
X95148674Y-76226097D01*
X95148670Y-76226096D01*
X95148666Y-76226094D01*
X94920424Y-76164938D01*
X94920414Y-76164936D01*
X94685012Y-76144341D01*
X94685010Y-76144341D01*
X94449607Y-76164936D01*
X94449597Y-76164938D01*
X94221355Y-76226094D01*
X94221346Y-76226098D01*
X94007182Y-76325964D01*
X94007180Y-76325965D01*
X93813608Y-76461505D01*
X93646516Y-76628597D01*
X93516586Y-76814158D01*
X93462009Y-76857783D01*
X93392511Y-76864977D01*
X93330156Y-76833454D01*
X93313436Y-76814158D01*
X93183505Y-76628597D01*
X93016413Y-76461506D01*
X93016406Y-76461501D01*
X92822845Y-76325967D01*
X92822841Y-76325965D01*
X92822839Y-76325964D01*
X92608674Y-76226097D01*
X92608670Y-76226096D01*
X92608666Y-76226094D01*
X92380424Y-76164938D01*
X92380414Y-76164936D01*
X92145012Y-76144341D01*
X92145010Y-76144341D01*
X91909607Y-76164936D01*
X91909597Y-76164938D01*
X91681355Y-76226094D01*
X91681346Y-76226098D01*
X91467182Y-76325964D01*
X91467180Y-76325965D01*
X91273608Y-76461505D01*
X91106516Y-76628597D01*
X90976586Y-76814158D01*
X90922009Y-76857783D01*
X90852511Y-76864977D01*
X90790156Y-76833454D01*
X90773436Y-76814158D01*
X90643505Y-76628597D01*
X90476413Y-76461506D01*
X90476406Y-76461501D01*
X90282845Y-76325967D01*
X90282841Y-76325965D01*
X90282839Y-76325964D01*
X90068674Y-76226097D01*
X90068670Y-76226096D01*
X90068666Y-76226094D01*
X89840424Y-76164938D01*
X89840414Y-76164936D01*
X89605012Y-76144341D01*
X89605010Y-76144341D01*
X89369607Y-76164936D01*
X89369597Y-76164938D01*
X89141355Y-76226094D01*
X89141346Y-76226098D01*
X88927182Y-76325964D01*
X88927180Y-76325965D01*
X88733608Y-76461505D01*
X88566516Y-76628597D01*
X88436586Y-76814158D01*
X88382009Y-76857783D01*
X88312511Y-76864977D01*
X88250156Y-76833454D01*
X88233436Y-76814158D01*
X88103505Y-76628597D01*
X87936413Y-76461506D01*
X87936406Y-76461501D01*
X87742845Y-76325967D01*
X87742841Y-76325965D01*
X87742839Y-76325964D01*
X87528674Y-76226097D01*
X87528670Y-76226096D01*
X87528666Y-76226094D01*
X87300424Y-76164938D01*
X87300414Y-76164936D01*
X87065012Y-76144341D01*
X87065010Y-76144341D01*
X86829607Y-76164936D01*
X86829597Y-76164938D01*
X86601355Y-76226094D01*
X86601346Y-76226098D01*
X86387182Y-76325964D01*
X86387180Y-76325965D01*
X86193608Y-76461505D01*
X86026516Y-76628597D01*
X85896586Y-76814158D01*
X85842009Y-76857783D01*
X85772511Y-76864977D01*
X85710156Y-76833454D01*
X85693436Y-76814158D01*
X85563505Y-76628597D01*
X85396413Y-76461506D01*
X85396406Y-76461501D01*
X85202845Y-76325967D01*
X85202841Y-76325965D01*
X85202839Y-76325964D01*
X84988674Y-76226097D01*
X84988670Y-76226096D01*
X84988666Y-76226094D01*
X84760424Y-76164938D01*
X84760414Y-76164936D01*
X84525012Y-76144341D01*
X84525010Y-76144341D01*
X84289607Y-76164936D01*
X84289597Y-76164938D01*
X84061355Y-76226094D01*
X84061346Y-76226098D01*
X83847182Y-76325964D01*
X83847180Y-76325965D01*
X83653608Y-76461505D01*
X83486516Y-76628597D01*
X83356586Y-76814158D01*
X83302009Y-76857783D01*
X83232511Y-76864977D01*
X83170156Y-76833454D01*
X83153436Y-76814158D01*
X83023505Y-76628597D01*
X82856413Y-76461506D01*
X82856406Y-76461501D01*
X82662845Y-76325967D01*
X82662841Y-76325965D01*
X82662839Y-76325964D01*
X82448674Y-76226097D01*
X82448670Y-76226096D01*
X82448666Y-76226094D01*
X82220424Y-76164938D01*
X82220414Y-76164936D01*
X81985012Y-76144341D01*
X81985010Y-76144341D01*
X81749607Y-76164936D01*
X81749597Y-76164938D01*
X81521355Y-76226094D01*
X81521346Y-76226098D01*
X81307182Y-76325964D01*
X81307180Y-76325965D01*
X81113608Y-76461505D01*
X80946516Y-76628597D01*
X80816586Y-76814158D01*
X80762009Y-76857783D01*
X80692511Y-76864977D01*
X80630156Y-76833454D01*
X80613436Y-76814158D01*
X80483505Y-76628597D01*
X80316413Y-76461506D01*
X80316406Y-76461501D01*
X80122845Y-76325967D01*
X80122841Y-76325965D01*
X80122839Y-76325964D01*
X79908674Y-76226097D01*
X79908670Y-76226096D01*
X79908666Y-76226094D01*
X79680424Y-76164938D01*
X79680414Y-76164936D01*
X79445012Y-76144341D01*
X79445010Y-76144341D01*
X79209607Y-76164936D01*
X79209597Y-76164938D01*
X78981355Y-76226094D01*
X78981346Y-76226098D01*
X78767182Y-76325964D01*
X78767180Y-76325965D01*
X78573608Y-76461505D01*
X78406516Y-76628597D01*
X78276586Y-76814158D01*
X78222009Y-76857783D01*
X78152511Y-76864977D01*
X78090156Y-76833454D01*
X78073436Y-76814158D01*
X77943505Y-76628597D01*
X77776413Y-76461506D01*
X77776406Y-76461501D01*
X77582845Y-76325967D01*
X77582841Y-76325965D01*
X77582839Y-76325964D01*
X77368674Y-76226097D01*
X77368670Y-76226096D01*
X77368666Y-76226094D01*
X77140424Y-76164938D01*
X77140414Y-76164936D01*
X76905012Y-76144341D01*
X76905010Y-76144341D01*
X76669607Y-76164936D01*
X76669597Y-76164938D01*
X76441355Y-76226094D01*
X76441346Y-76226098D01*
X76227182Y-76325964D01*
X76227180Y-76325965D01*
X76033608Y-76461505D01*
X75866516Y-76628597D01*
X75730976Y-76822169D01*
X75730975Y-76822171D01*
X75631109Y-77036335D01*
X75631105Y-77036344D01*
X75569949Y-77264586D01*
X75569947Y-77264596D01*
X75549352Y-77499999D01*
X75549352Y-77500000D01*
X75569947Y-77735403D01*
X75569949Y-77735413D01*
X75631105Y-77963655D01*
X75631107Y-77963659D01*
X75631108Y-77963663D01*
X75710812Y-78134588D01*
X75730976Y-78177830D01*
X75730978Y-78177834D01*
X75808842Y-78289034D01*
X75866515Y-78371400D01*
X75866517Y-78371402D01*
X75988441Y-78493326D01*
X76021926Y-78554649D01*
X76016942Y-78624341D01*
X75975070Y-78680274D01*
X75944094Y-78697189D01*
X75812680Y-78746203D01*
X75812675Y-78746206D01*
X75697466Y-78832452D01*
X75697463Y-78832455D01*
X75611217Y-78947664D01*
X75611213Y-78947671D01*
X75560919Y-79082517D01*
X75554512Y-79142116D01*
X75554511Y-79142135D01*
X75554511Y-80937870D01*
X75554512Y-80937876D01*
X75560919Y-80997483D01*
X75611213Y-81132328D01*
X75611217Y-81132335D01*
X75697463Y-81247544D01*
X75697466Y-81247547D01*
X75812675Y-81333793D01*
X75812682Y-81333797D01*
X75947528Y-81384091D01*
X75947527Y-81384091D01*
X75954455Y-81384835D01*
X76007138Y-81390500D01*
X77802883Y-81390499D01*
X77862494Y-81384091D01*
X77997342Y-81333796D01*
X78112557Y-81247546D01*
X78198807Y-81132331D01*
X78247821Y-81000916D01*
X78289692Y-80944984D01*
X78355156Y-80920566D01*
X78423429Y-80935417D01*
X78451684Y-80956569D01*
X78573610Y-81078495D01*
X78670395Y-81146265D01*
X78767176Y-81214032D01*
X78767178Y-81214033D01*
X78767181Y-81214035D01*
X78981348Y-81313903D01*
X79209603Y-81375063D01*
X79386045Y-81390500D01*
X79445010Y-81395659D01*
X79445011Y-81395659D01*
X79445012Y-81395659D01*
X79503977Y-81390500D01*
X79680419Y-81375063D01*
X79908674Y-81313903D01*
X80122841Y-81214035D01*
X80316412Y-81078495D01*
X80483506Y-80911401D01*
X80613436Y-80725842D01*
X80668013Y-80682217D01*
X80737511Y-80675023D01*
X80799866Y-80706546D01*
X80816586Y-80725842D01*
X80946511Y-80911395D01*
X80946516Y-80911401D01*
X81113610Y-81078495D01*
X81210395Y-81146265D01*
X81307176Y-81214032D01*
X81307178Y-81214033D01*
X81307181Y-81214035D01*
X81521348Y-81313903D01*
X81749603Y-81375063D01*
X81926045Y-81390500D01*
X81985010Y-81395659D01*
X81985011Y-81395659D01*
X81985012Y-81395659D01*
X82043977Y-81390500D01*
X82220419Y-81375063D01*
X82448674Y-81313903D01*
X82662841Y-81214035D01*
X82856412Y-81078495D01*
X83023506Y-80911401D01*
X83153436Y-80725842D01*
X83208013Y-80682217D01*
X83277511Y-80675023D01*
X83339866Y-80706546D01*
X83356586Y-80725842D01*
X83486511Y-80911395D01*
X83486516Y-80911401D01*
X83653610Y-81078495D01*
X83750395Y-81146265D01*
X83847176Y-81214032D01*
X83847178Y-81214033D01*
X83847181Y-81214035D01*
X84061348Y-81313903D01*
X84289603Y-81375063D01*
X84466045Y-81390500D01*
X84525010Y-81395659D01*
X84525011Y-81395659D01*
X84525012Y-81395659D01*
X84583977Y-81390500D01*
X84760419Y-81375063D01*
X84988674Y-81313903D01*
X85202841Y-81214035D01*
X85396412Y-81078495D01*
X85563506Y-80911401D01*
X85693436Y-80725842D01*
X85748013Y-80682217D01*
X85817511Y-80675023D01*
X85879866Y-80706546D01*
X85896586Y-80725842D01*
X86026511Y-80911395D01*
X86026516Y-80911401D01*
X86193610Y-81078495D01*
X86290395Y-81146265D01*
X86387176Y-81214032D01*
X86387178Y-81214033D01*
X86387181Y-81214035D01*
X86601348Y-81313903D01*
X86829603Y-81375063D01*
X87006045Y-81390500D01*
X87065010Y-81395659D01*
X87065011Y-81395659D01*
X87065012Y-81395659D01*
X87123977Y-81390500D01*
X87300419Y-81375063D01*
X87528674Y-81313903D01*
X87742841Y-81214035D01*
X87936412Y-81078495D01*
X88103506Y-80911401D01*
X88233436Y-80725842D01*
X88288013Y-80682217D01*
X88357511Y-80675023D01*
X88419866Y-80706546D01*
X88436586Y-80725842D01*
X88566511Y-80911395D01*
X88566516Y-80911401D01*
X88733610Y-81078495D01*
X88830395Y-81146265D01*
X88927176Y-81214032D01*
X88927178Y-81214033D01*
X88927181Y-81214035D01*
X89141348Y-81313903D01*
X89369603Y-81375063D01*
X89546045Y-81390500D01*
X89605010Y-81395659D01*
X89605011Y-81395659D01*
X89605012Y-81395659D01*
X89663977Y-81390500D01*
X89840419Y-81375063D01*
X90068674Y-81313903D01*
X90282841Y-81214035D01*
X90476412Y-81078495D01*
X90643506Y-80911401D01*
X90773436Y-80725842D01*
X90828013Y-80682217D01*
X90897511Y-80675023D01*
X90959866Y-80706546D01*
X90976586Y-80725842D01*
X91106511Y-80911395D01*
X91106516Y-80911401D01*
X91273610Y-81078495D01*
X91370395Y-81146265D01*
X91467176Y-81214032D01*
X91467178Y-81214033D01*
X91467181Y-81214035D01*
X91681348Y-81313903D01*
X91909603Y-81375063D01*
X92086045Y-81390500D01*
X92145010Y-81395659D01*
X92145011Y-81395659D01*
X92145012Y-81395659D01*
X92203977Y-81390500D01*
X92380419Y-81375063D01*
X92608674Y-81313903D01*
X92822841Y-81214035D01*
X93016412Y-81078495D01*
X93183506Y-80911401D01*
X93313436Y-80725842D01*
X93368013Y-80682217D01*
X93437511Y-80675023D01*
X93499866Y-80706546D01*
X93516586Y-80725842D01*
X93646511Y-80911395D01*
X93646516Y-80911401D01*
X93813610Y-81078495D01*
X93910395Y-81146265D01*
X94007176Y-81214032D01*
X94007178Y-81214033D01*
X94007181Y-81214035D01*
X94221348Y-81313903D01*
X94449603Y-81375063D01*
X94626045Y-81390500D01*
X94685010Y-81395659D01*
X94685011Y-81395659D01*
X94685012Y-81395659D01*
X94743977Y-81390500D01*
X94920419Y-81375063D01*
X95148674Y-81313903D01*
X95362841Y-81214035D01*
X95556412Y-81078495D01*
X95723506Y-80911401D01*
X95853436Y-80725842D01*
X95908013Y-80682217D01*
X95977511Y-80675023D01*
X96039866Y-80706546D01*
X96056586Y-80725842D01*
X96186511Y-80911395D01*
X96186516Y-80911401D01*
X96353610Y-81078495D01*
X96450395Y-81146265D01*
X96547176Y-81214032D01*
X96547178Y-81214033D01*
X96547181Y-81214035D01*
X96761348Y-81313903D01*
X96989603Y-81375063D01*
X97166045Y-81390500D01*
X97225010Y-81395659D01*
X97225011Y-81395659D01*
X97225012Y-81395659D01*
X97283977Y-81390500D01*
X97460419Y-81375063D01*
X97584418Y-81341838D01*
X97654268Y-81343501D01*
X97712130Y-81382664D01*
X97739634Y-81446892D01*
X97740511Y-81461613D01*
X97740511Y-89415563D01*
X97740510Y-89415589D01*
X97740510Y-89569324D01*
X97760468Y-89669654D01*
X97760468Y-89669656D01*
X97769504Y-89715083D01*
X97769507Y-89715095D01*
X97782625Y-89746763D01*
X97826379Y-89852396D01*
X97826383Y-89852403D01*
X97908953Y-89975979D01*
X97908954Y-89975980D01*
X100409600Y-92476624D01*
X100409621Y-92476647D01*
X100519031Y-92586057D01*
X100590318Y-92633689D01*
X100642603Y-92668625D01*
X100642612Y-92668630D01*
X100670629Y-92680235D01*
X100779920Y-92725505D01*
X100925683Y-92754499D01*
X100925687Y-92754500D01*
X100925688Y-92754500D01*
X101074312Y-92754500D01*
X102636113Y-92754500D01*
X102703152Y-92774185D01*
X102723794Y-92790819D01*
X103358663Y-93425688D01*
X103820795Y-93887819D01*
X103854280Y-93949142D01*
X103849296Y-94018834D01*
X103807424Y-94074767D01*
X103741960Y-94099184D01*
X103733114Y-94099500D01*
X103052129Y-94099500D01*
X103052123Y-94099501D01*
X102992516Y-94105908D01*
X102857671Y-94156202D01*
X102857664Y-94156206D01*
X102742455Y-94242452D01*
X102742452Y-94242455D01*
X102656206Y-94357664D01*
X102656202Y-94357671D01*
X102605908Y-94492517D01*
X102599501Y-94552116D01*
X102599500Y-94552135D01*
X102599500Y-94621500D01*
X102579815Y-94688539D01*
X102527011Y-94734294D01*
X102475500Y-94745500D01*
X101925683Y-94745500D01*
X101779927Y-94774493D01*
X101779919Y-94774495D01*
X101642608Y-94831371D01*
X101519035Y-94913939D01*
X101519034Y-94913940D01*
X101466488Y-94966487D01*
X101413941Y-95019034D01*
X101413939Y-95019036D01*
X99913943Y-96519030D01*
X99913942Y-96519031D01*
X99831372Y-96642607D01*
X99831366Y-96642618D01*
X99816835Y-96677702D01*
X99816835Y-96677703D01*
X99785025Y-96754499D01*
X99774495Y-96779919D01*
X99774493Y-96779925D01*
X99745499Y-96925685D01*
X99745499Y-97080425D01*
X99745500Y-97080446D01*
X99745500Y-104420552D01*
X99745499Y-104420578D01*
X99745499Y-104574313D01*
X99761242Y-104653452D01*
X99761242Y-104653454D01*
X99774493Y-104720072D01*
X99774495Y-104720080D01*
X99785872Y-104747546D01*
X99831368Y-104857385D01*
X99831372Y-104857392D01*
X99913942Y-104980968D01*
X99913943Y-104980969D01*
X102720795Y-107787819D01*
X102754280Y-107849142D01*
X102749296Y-107918834D01*
X102707424Y-107974767D01*
X102641960Y-107999184D01*
X102633114Y-107999500D01*
X87506961Y-107999500D01*
X87493077Y-107998720D01*
X87480552Y-107997308D01*
X87402734Y-107988540D01*
X87375665Y-107982362D01*
X87296462Y-107954648D01*
X87271444Y-107942600D01*
X87200395Y-107897957D01*
X87178686Y-107880644D01*
X87119355Y-107821313D01*
X87102042Y-107799604D01*
X87098707Y-107794297D01*
X87057398Y-107728553D01*
X87045351Y-107703537D01*
X87045350Y-107703535D01*
X87017636Y-107624331D01*
X87011459Y-107597263D01*
X87001280Y-107506922D01*
X87000500Y-107493038D01*
X87000500Y-92892683D01*
X87000500Y-92892682D01*
X86976464Y-92725506D01*
X86969955Y-92680235D01*
X86969952Y-92680225D01*
X86966548Y-92668630D01*
X86909484Y-92474290D01*
X86909483Y-92474288D01*
X86909482Y-92474284D01*
X86820327Y-92279061D01*
X86820320Y-92279048D01*
X86787211Y-92227531D01*
X86704281Y-92098487D01*
X86671172Y-92060277D01*
X86563724Y-91936275D01*
X86401514Y-91795720D01*
X86401513Y-91795719D01*
X86336991Y-91754253D01*
X86220951Y-91679679D01*
X86220938Y-91679672D01*
X86025715Y-91590517D01*
X85819774Y-91530047D01*
X85819764Y-91530044D01*
X85628754Y-91502582D01*
X85607318Y-91499500D01*
X85607317Y-91499500D01*
X78006961Y-91499500D01*
X77993077Y-91498720D01*
X77980552Y-91497308D01*
X77902734Y-91488540D01*
X77875665Y-91482362D01*
X77796462Y-91454648D01*
X77771444Y-91442600D01*
X77700395Y-91397957D01*
X77678686Y-91380644D01*
X77619355Y-91321313D01*
X77602042Y-91299604D01*
X77601067Y-91298053D01*
X77557398Y-91228553D01*
X77545351Y-91203537D01*
X77517637Y-91124333D01*
X77511459Y-91097263D01*
X77501280Y-91006922D01*
X77500500Y-90993038D01*
X77500500Y-83892683D01*
X77500500Y-83892682D01*
X77469954Y-83680231D01*
X77449179Y-83609476D01*
X77409488Y-83474298D01*
X77409483Y-83474286D01*
X77320328Y-83279062D01*
X77320319Y-83279046D01*
X77204281Y-83098488D01*
X77141554Y-83026097D01*
X77063725Y-82936277D01*
X77063722Y-82936275D01*
X77063721Y-82936273D01*
X76901522Y-82795725D01*
X76901518Y-82795722D01*
X76868006Y-82774185D01*
X76720952Y-82679680D01*
X76636760Y-82641230D01*
X76525715Y-82590516D01*
X76319777Y-82530047D01*
X76319767Y-82530044D01*
X76128757Y-82502582D01*
X76107321Y-82499500D01*
X76107320Y-82499500D01*
X75506962Y-82499500D01*
X75493078Y-82498720D01*
X75480553Y-82497308D01*
X75402735Y-82488540D01*
X75375666Y-82482362D01*
X75296462Y-82454648D01*
X75271444Y-82442600D01*
X75200395Y-82397957D01*
X75178686Y-82380644D01*
X75119355Y-82321313D01*
X75102042Y-82299604D01*
X75100783Y-82297601D01*
X75057398Y-82228553D01*
X75045351Y-82203537D01*
X75035024Y-82174024D01*
X75017636Y-82124331D01*
X75011459Y-82097263D01*
X75008266Y-82068928D01*
X75001280Y-82006922D01*
X75000500Y-81993038D01*
X75000500Y-76006961D01*
X75001280Y-75993077D01*
X75011459Y-75902731D01*
X75017635Y-75875670D01*
X75045353Y-75796456D01*
X75057398Y-75771447D01*
X75102046Y-75700389D01*
X75119351Y-75678690D01*
X75178690Y-75619351D01*
X75200389Y-75602046D01*
X75271450Y-75557396D01*
X75296456Y-75545353D01*
X75375670Y-75517635D01*
X75402733Y-75511459D01*
X75465419Y-75504396D01*
X75493079Y-75501280D01*
X75506962Y-75500500D01*
X75565892Y-75500500D01*
X131434109Y-75500500D01*
X131493039Y-75500500D01*
X131506923Y-75501280D01*
G37*
%TD.AperFunction*%
%TA.AperFunction,Conductor*%
G36*
X100015011Y-81370633D02*
G01*
X100228494Y-81313433D01*
X100228503Y-81313429D01*
X100442589Y-81213600D01*
X100636093Y-81078105D01*
X100803116Y-80911082D01*
X100933130Y-80725405D01*
X100987707Y-80681781D01*
X101057206Y-80674588D01*
X101119560Y-80706110D01*
X101136280Y-80725405D01*
X101266516Y-80911401D01*
X101433610Y-81078495D01*
X101530395Y-81146265D01*
X101627176Y-81214032D01*
X101627178Y-81214033D01*
X101627181Y-81214035D01*
X101841348Y-81313903D01*
X102069603Y-81375063D01*
X102246045Y-81390500D01*
X102305010Y-81395659D01*
X102305011Y-81395659D01*
X102305012Y-81395659D01*
X102332787Y-81393228D01*
X102512822Y-81377477D01*
X102581321Y-81391243D01*
X102611310Y-81413324D01*
X103674611Y-82476624D01*
X103674632Y-82476647D01*
X103784040Y-82586055D01*
X103784043Y-82586057D01*
X103784045Y-82586059D01*
X103866616Y-82641230D01*
X103907622Y-82668630D01*
X103907623Y-82668630D01*
X103907623Y-82668631D01*
X103932949Y-82679120D01*
X103965695Y-82692684D01*
X103965696Y-82692685D01*
X103965697Y-82692685D01*
X104044931Y-82725505D01*
X104064012Y-82729300D01*
X104064015Y-82729302D01*
X104064015Y-82729301D01*
X104127357Y-82741901D01*
X104190698Y-82754501D01*
X104190699Y-82754501D01*
X104345437Y-82754501D01*
X104345457Y-82754500D01*
X107136113Y-82754500D01*
X107203152Y-82774185D01*
X107223794Y-82790819D01*
X108209181Y-83776205D01*
X108242666Y-83837528D01*
X108245500Y-83863886D01*
X108245500Y-90421816D01*
X108245499Y-90421842D01*
X108245499Y-90575577D01*
X108259527Y-90646096D01*
X108259527Y-90646098D01*
X108274492Y-90721336D01*
X108274495Y-90721345D01*
X108280091Y-90734855D01*
X108298053Y-90778219D01*
X108331370Y-90858653D01*
X108346640Y-90881506D01*
X108413942Y-90982232D01*
X108413943Y-90982233D01*
X110725774Y-93294063D01*
X110728118Y-93295987D01*
X110737130Y-93304155D01*
X110865502Y-93432527D01*
X110898987Y-93493850D01*
X110894003Y-93563542D01*
X110852131Y-93619475D01*
X110786667Y-93643892D01*
X110745728Y-93639983D01*
X110726610Y-93634860D01*
X110726599Y-93634858D01*
X110500002Y-93615034D01*
X110499998Y-93615034D01*
X110273400Y-93634858D01*
X110273389Y-93634860D01*
X110053682Y-93693730D01*
X110053673Y-93693734D01*
X109847516Y-93789866D01*
X109847512Y-93789868D01*
X109774526Y-93840973D01*
X109774526Y-93840974D01*
X110453553Y-94520000D01*
X110447339Y-94520000D01*
X110345606Y-94547259D01*
X110254394Y-94599920D01*
X110179920Y-94674394D01*
X110127259Y-94765606D01*
X110100000Y-94867339D01*
X110100000Y-94873552D01*
X109420974Y-94194526D01*
X109420973Y-94194526D01*
X109369868Y-94267512D01*
X109369866Y-94267516D01*
X109273734Y-94473673D01*
X109273730Y-94473682D01*
X109214860Y-94693389D01*
X109214858Y-94693400D01*
X109195034Y-94919997D01*
X109195034Y-94920002D01*
X109214858Y-95146599D01*
X109214860Y-95146610D01*
X109273730Y-95366317D01*
X109273735Y-95366331D01*
X109369863Y-95572478D01*
X109420974Y-95645472D01*
X110100000Y-94966446D01*
X110100000Y-94972661D01*
X110127259Y-95074394D01*
X110179920Y-95165606D01*
X110254394Y-95240080D01*
X110345606Y-95292741D01*
X110447339Y-95320000D01*
X110453553Y-95320000D01*
X109774526Y-95999025D01*
X109847513Y-96050132D01*
X109847521Y-96050136D01*
X110053668Y-96146264D01*
X110053682Y-96146269D01*
X110273389Y-96205139D01*
X110273400Y-96205141D01*
X110499998Y-96224966D01*
X110500002Y-96224966D01*
X110726599Y-96205141D01*
X110726610Y-96205139D01*
X110946317Y-96146269D01*
X110946331Y-96146264D01*
X111152478Y-96050136D01*
X111225471Y-95999024D01*
X110546447Y-95320000D01*
X110552661Y-95320000D01*
X110654394Y-95292741D01*
X110745606Y-95240080D01*
X110820080Y-95165606D01*
X110872741Y-95074394D01*
X110900000Y-94972661D01*
X110900000Y-94966447D01*
X111579024Y-95645471D01*
X111630136Y-95572478D01*
X111726264Y-95366331D01*
X111726269Y-95366317D01*
X111785139Y-95146610D01*
X111785141Y-95146599D01*
X111804966Y-94920002D01*
X111804966Y-94919997D01*
X111785141Y-94693400D01*
X111785138Y-94693385D01*
X111780017Y-94674272D01*
X111781678Y-94604422D01*
X111820840Y-94546559D01*
X111885068Y-94519054D01*
X111953971Y-94530640D01*
X111987472Y-94554496D01*
X112209181Y-94776205D01*
X112242666Y-94837528D01*
X112245500Y-94863886D01*
X112245500Y-95920552D01*
X112245499Y-95920578D01*
X112245499Y-96074314D01*
X112264261Y-96168629D01*
X112264261Y-96168631D01*
X112274493Y-96220071D01*
X112274496Y-96220083D01*
X112288752Y-96254500D01*
X112320592Y-96331370D01*
X112331370Y-96357389D01*
X112345476Y-96378500D01*
X112413942Y-96480968D01*
X112413943Y-96480969D01*
X118709181Y-102776205D01*
X118742666Y-102837528D01*
X118745500Y-102863886D01*
X118745500Y-103956138D01*
X118725815Y-104023177D01*
X118692626Y-104057710D01*
X118660861Y-104079953D01*
X118499951Y-104240862D01*
X118369432Y-104427265D01*
X118369431Y-104427267D01*
X118273261Y-104633502D01*
X118273258Y-104633511D01*
X118214366Y-104853302D01*
X118214364Y-104853313D01*
X118194532Y-105079998D01*
X118194532Y-105080001D01*
X118214364Y-105306686D01*
X118214366Y-105306697D01*
X118273258Y-105526488D01*
X118273261Y-105526497D01*
X118369431Y-105732732D01*
X118369432Y-105732734D01*
X118499954Y-105919141D01*
X118660858Y-106080045D01*
X118660861Y-106080047D01*
X118847266Y-106210568D01*
X119053504Y-106306739D01*
X119273308Y-106365635D01*
X119435230Y-106379801D01*
X119499998Y-106385468D01*
X119500000Y-106385468D01*
X119500002Y-106385468D01*
X119556673Y-106380509D01*
X119726692Y-106365635D01*
X119946496Y-106306739D01*
X120152734Y-106210568D01*
X120339139Y-106080047D01*
X120500047Y-105919139D01*
X120630568Y-105732734D01*
X120726739Y-105526496D01*
X120785635Y-105306692D01*
X120805468Y-105080000D01*
X120785635Y-104853308D01*
X120726739Y-104633504D01*
X120630568Y-104427266D01*
X120509597Y-104254500D01*
X120500048Y-104240862D01*
X120421657Y-104162471D01*
X120339139Y-104079953D01*
X120307374Y-104057710D01*
X120263751Y-104003135D01*
X120254500Y-103956138D01*
X120254500Y-102580446D01*
X120254501Y-102580425D01*
X120254501Y-102425685D01*
X120225506Y-102279927D01*
X120225505Y-102279921D01*
X120224456Y-102277389D01*
X120168629Y-102142610D01*
X120086059Y-102019034D01*
X120086054Y-102019028D01*
X119976647Y-101909621D01*
X119976624Y-101909600D01*
X114414183Y-96347158D01*
X114380698Y-96285835D01*
X114385682Y-96216143D01*
X114427554Y-96160210D01*
X114493018Y-96135793D01*
X114548037Y-96145948D01*
X114548423Y-96144889D01*
X114553498Y-96146736D01*
X114553504Y-96146739D01*
X114773308Y-96205635D01*
X114935230Y-96219801D01*
X114999998Y-96225468D01*
X115000000Y-96225468D01*
X115000001Y-96225468D01*
X115018637Y-96223837D01*
X115161659Y-96211324D01*
X115230157Y-96225090D01*
X115260146Y-96247171D01*
X121209181Y-102196206D01*
X121242666Y-102257529D01*
X121245500Y-102283887D01*
X121245500Y-105636113D01*
X121225815Y-105703152D01*
X121209181Y-105723794D01*
X120223794Y-106709181D01*
X120162471Y-106742666D01*
X120136113Y-106745500D01*
X103863886Y-106745500D01*
X103796847Y-106725815D01*
X103776205Y-106709181D01*
X102593512Y-105526488D01*
X101916862Y-104849837D01*
X101883378Y-104788516D01*
X101888362Y-104718824D01*
X101930214Y-104662916D01*
X101886358Y-104702311D01*
X101817388Y-104713487D01*
X101753324Y-104685602D01*
X101745160Y-104678135D01*
X101290819Y-104223794D01*
X101257334Y-104162471D01*
X101254500Y-104136113D01*
X101254500Y-97363886D01*
X101274185Y-97296847D01*
X101290819Y-97276205D01*
X102276205Y-96290819D01*
X102337528Y-96257334D01*
X102363886Y-96254500D01*
X102475501Y-96254500D01*
X102542540Y-96274185D01*
X102588295Y-96326989D01*
X102599501Y-96378500D01*
X102599501Y-96447876D01*
X102605908Y-96507483D01*
X102656202Y-96642328D01*
X102656206Y-96642335D01*
X102742452Y-96757544D01*
X102742455Y-96757547D01*
X102857664Y-96843793D01*
X102857673Y-96843798D01*
X102937904Y-96873722D01*
X102993838Y-96915593D01*
X103018256Y-96981057D01*
X103003405Y-97049330D01*
X102985802Y-97073886D01*
X102891019Y-97176849D01*
X102764075Y-97371151D01*
X102670842Y-97583699D01*
X102613866Y-97808691D01*
X102613864Y-97808702D01*
X102594700Y-98039993D01*
X102594700Y-98040006D01*
X102613864Y-98271297D01*
X102613866Y-98271308D01*
X102670842Y-98496300D01*
X102764075Y-98708848D01*
X102891016Y-98903147D01*
X102891019Y-98903151D01*
X102891021Y-98903153D01*
X103048216Y-99073913D01*
X103048219Y-99073915D01*
X103048222Y-99073918D01*
X103231365Y-99216464D01*
X103231371Y-99216468D01*
X103231374Y-99216470D01*
X103435497Y-99326936D01*
X103549487Y-99366068D01*
X103655015Y-99402297D01*
X103655017Y-99402297D01*
X103655019Y-99402298D01*
X103883951Y-99440500D01*
X103883952Y-99440500D01*
X104116048Y-99440500D01*
X104116049Y-99440500D01*
X104344981Y-99402298D01*
X104564503Y-99326936D01*
X104768626Y-99216470D01*
X104951784Y-99073913D01*
X105108979Y-98903153D01*
X105235924Y-98708849D01*
X105329157Y-98496300D01*
X105386134Y-98271305D01*
X105386135Y-98271297D01*
X105405300Y-98040006D01*
X105405300Y-98039993D01*
X105386135Y-97808702D01*
X105386134Y-97808699D01*
X105386134Y-97808695D01*
X105385689Y-97806937D01*
X105385716Y-97806195D01*
X105385289Y-97803631D01*
X105385816Y-97803542D01*
X105388310Y-97737119D01*
X105418210Y-97688812D01*
X105834963Y-97272060D01*
X105834966Y-97272059D01*
X105940059Y-97166966D01*
X105994287Y-97085807D01*
X106018398Y-97049723D01*
X106072010Y-97004917D01*
X106141335Y-96996210D01*
X106204362Y-97026364D01*
X106241082Y-97085807D01*
X106245500Y-97118613D01*
X106245500Y-102354316D01*
X106225815Y-102421355D01*
X106173011Y-102467110D01*
X106103853Y-102477054D01*
X106047192Y-102453585D01*
X106037333Y-102446205D01*
X106037328Y-102446202D01*
X105902482Y-102395908D01*
X105902483Y-102395908D01*
X105842883Y-102389501D01*
X105842881Y-102389500D01*
X105842873Y-102389500D01*
X105842864Y-102389500D01*
X104697129Y-102389500D01*
X104697123Y-102389501D01*
X104637516Y-102395908D01*
X104502672Y-102446202D01*
X104502665Y-102446206D01*
X104501556Y-102447037D01*
X104500258Y-102447520D01*
X104494887Y-102450454D01*
X104494465Y-102449681D01*
X104436090Y-102471449D01*
X104379800Y-102462325D01*
X104299127Y-102428909D01*
X104299119Y-102428907D01*
X104101007Y-102389500D01*
X104101003Y-102389500D01*
X103898997Y-102389500D01*
X103898992Y-102389500D01*
X103700880Y-102428907D01*
X103700872Y-102428909D01*
X103514243Y-102506214D01*
X103433439Y-102560204D01*
X103366761Y-102581081D01*
X103299382Y-102562595D01*
X103295659Y-102560203D01*
X103215526Y-102506659D01*
X103215513Y-102506652D01*
X103028984Y-102429390D01*
X103028977Y-102429388D01*
X102980000Y-102419645D01*
X102980000Y-103274134D01*
X102977617Y-103298326D01*
X102974500Y-103313997D01*
X102974500Y-103354170D01*
X102960255Y-103339925D01*
X102874745Y-103290556D01*
X102779370Y-103265000D01*
X102680630Y-103265000D01*
X102585255Y-103290556D01*
X102499745Y-103339925D01*
X102480000Y-103359670D01*
X102480000Y-102419646D01*
X102479999Y-102419645D01*
X102431022Y-102429388D01*
X102431015Y-102429390D01*
X102244486Y-102506652D01*
X102244473Y-102506659D01*
X102076600Y-102618829D01*
X102076596Y-102618832D01*
X101933832Y-102761596D01*
X101933829Y-102761600D01*
X101821659Y-102929473D01*
X101821652Y-102929486D01*
X101744390Y-103116016D01*
X101744387Y-103116025D01*
X101705000Y-103314041D01*
X101705000Y-103390000D01*
X102449670Y-103390000D01*
X102429925Y-103409745D01*
X102380556Y-103495255D01*
X102355000Y-103590630D01*
X102355000Y-103689370D01*
X102380556Y-103784745D01*
X102429925Y-103870255D01*
X102449670Y-103890000D01*
X101705000Y-103890000D01*
X101705000Y-103965958D01*
X101744387Y-104163974D01*
X101744390Y-104163983D01*
X101821652Y-104350513D01*
X101821659Y-104350526D01*
X101935943Y-104521563D01*
X101956821Y-104588241D01*
X101938337Y-104655621D01*
X101930250Y-104662884D01*
X101995698Y-104638474D01*
X102063971Y-104653326D01*
X102073435Y-104659056D01*
X102244473Y-104773340D01*
X102244486Y-104773347D01*
X102431016Y-104850609D01*
X102431025Y-104850612D01*
X102480000Y-104860353D01*
X102480000Y-103920330D01*
X102499745Y-103940075D01*
X102585255Y-103989444D01*
X102680630Y-104015000D01*
X102779370Y-104015000D01*
X102874745Y-103989444D01*
X102960255Y-103940075D01*
X102974500Y-103925830D01*
X102974500Y-103966003D01*
X102977477Y-103980971D01*
X102977617Y-103981671D01*
X102980000Y-104005865D01*
X102980000Y-104860352D01*
X103028974Y-104850612D01*
X103028983Y-104850609D01*
X103151391Y-104799907D01*
X103220860Y-104792438D01*
X103283339Y-104823713D01*
X103313404Y-104867015D01*
X103331368Y-104910384D01*
X103331372Y-104910392D01*
X103413942Y-105033968D01*
X103413943Y-105033969D01*
X103936600Y-105556624D01*
X103936621Y-105556647D01*
X104046029Y-105666055D01*
X104046032Y-105666057D01*
X104046034Y-105666059D01*
X104128605Y-105721230D01*
X104169611Y-105748630D01*
X104244052Y-105779464D01*
X104306920Y-105805505D01*
X104306924Y-105805506D01*
X104331104Y-105810315D01*
X104331110Y-105810316D01*
X104452686Y-105834501D01*
X104452688Y-105834501D01*
X104607426Y-105834501D01*
X104607446Y-105834500D01*
X109376138Y-105834500D01*
X109443177Y-105854185D01*
X109477713Y-105887377D01*
X109499954Y-105919141D01*
X109660858Y-106080045D01*
X109660861Y-106080047D01*
X109847266Y-106210568D01*
X110053504Y-106306739D01*
X110273308Y-106365635D01*
X110435230Y-106379801D01*
X110499998Y-106385468D01*
X110500000Y-106385468D01*
X110500002Y-106385468D01*
X110556673Y-106380509D01*
X110726692Y-106365635D01*
X110946496Y-106306739D01*
X111152734Y-106210568D01*
X111339139Y-106080047D01*
X111500047Y-105919139D01*
X111522287Y-105887377D01*
X111576863Y-105843752D01*
X111623862Y-105834500D01*
X113876138Y-105834500D01*
X113943177Y-105854185D01*
X113977713Y-105887377D01*
X113999954Y-105919141D01*
X114160858Y-106080045D01*
X114160861Y-106080047D01*
X114347266Y-106210568D01*
X114553504Y-106306739D01*
X114773308Y-106365635D01*
X114935230Y-106379801D01*
X114999998Y-106385468D01*
X115000000Y-106385468D01*
X115000002Y-106385468D01*
X115056673Y-106380509D01*
X115226692Y-106365635D01*
X115446496Y-106306739D01*
X115652734Y-106210568D01*
X115839139Y-106080047D01*
X116000047Y-105919139D01*
X116130568Y-105732734D01*
X116226739Y-105526496D01*
X116285635Y-105306692D01*
X116305468Y-105080000D01*
X116285635Y-104853308D01*
X116226739Y-104633504D01*
X116130568Y-104427266D01*
X116009597Y-104254500D01*
X116000045Y-104240858D01*
X115839141Y-104079954D01*
X115652734Y-103949432D01*
X115652732Y-103949431D01*
X115446497Y-103853261D01*
X115446488Y-103853258D01*
X115226697Y-103794366D01*
X115226693Y-103794365D01*
X115226692Y-103794365D01*
X115226691Y-103794364D01*
X115226686Y-103794364D01*
X115000002Y-103774532D01*
X114999998Y-103774532D01*
X114773313Y-103794364D01*
X114773302Y-103794366D01*
X114553511Y-103853258D01*
X114553502Y-103853261D01*
X114347267Y-103949431D01*
X114347265Y-103949432D01*
X114160858Y-104079954D01*
X113999954Y-104240858D01*
X113977713Y-104272623D01*
X113923137Y-104316248D01*
X113876138Y-104325500D01*
X111623862Y-104325500D01*
X111556823Y-104305815D01*
X111522287Y-104272623D01*
X111500045Y-104240858D01*
X111339141Y-104079954D01*
X111152734Y-103949432D01*
X111152732Y-103949431D01*
X110946497Y-103853261D01*
X110946488Y-103853258D01*
X110726697Y-103794366D01*
X110726693Y-103794365D01*
X110726692Y-103794365D01*
X110726691Y-103794364D01*
X110726686Y-103794364D01*
X110500002Y-103774532D01*
X110499998Y-103774532D01*
X110273313Y-103794364D01*
X110273302Y-103794366D01*
X110053511Y-103853258D01*
X110053502Y-103853261D01*
X109847267Y-103949431D01*
X109847265Y-103949432D01*
X109660858Y-104079954D01*
X109499954Y-104240858D01*
X109477713Y-104272623D01*
X109423137Y-104316248D01*
X109376138Y-104325500D01*
X107531390Y-104325500D01*
X107464351Y-104305815D01*
X107418596Y-104253011D01*
X107408652Y-104183853D01*
X107437677Y-104120297D01*
X107462499Y-104098398D01*
X107480966Y-104086059D01*
X107586059Y-103980966D01*
X107668629Y-103857390D01*
X107725505Y-103720080D01*
X107754500Y-103574312D01*
X107754500Y-92080446D01*
X107754501Y-92080425D01*
X107754501Y-91925685D01*
X107725506Y-91779926D01*
X107725505Y-91779925D01*
X107725505Y-91779921D01*
X107686019Y-91684592D01*
X107668633Y-91642617D01*
X107668625Y-91642602D01*
X107633822Y-91590517D01*
X107633821Y-91590515D01*
X107586060Y-91519035D01*
X107586054Y-91519028D01*
X107476647Y-91409621D01*
X107476624Y-91409600D01*
X106136818Y-90069794D01*
X106103333Y-90008471D01*
X106100499Y-89982113D01*
X106100499Y-87852129D01*
X106100498Y-87852123D01*
X106094091Y-87792516D01*
X106043797Y-87657671D01*
X106043793Y-87657664D01*
X105957547Y-87542455D01*
X105957544Y-87542452D01*
X105842335Y-87456206D01*
X105842328Y-87456202D01*
X105707482Y-87405908D01*
X105707483Y-87405908D01*
X105647883Y-87399501D01*
X105647881Y-87399500D01*
X105647873Y-87399500D01*
X105647865Y-87399500D01*
X104943574Y-87399500D01*
X104876535Y-87379815D01*
X104830780Y-87327011D01*
X104820836Y-87257853D01*
X104849861Y-87194297D01*
X104874683Y-87172398D01*
X105010289Y-87081789D01*
X105121786Y-86970292D01*
X105121789Y-86970289D01*
X105209394Y-86839179D01*
X105269737Y-86693497D01*
X105300500Y-86538842D01*
X105300500Y-86381158D01*
X105300500Y-86381155D01*
X105300499Y-86381153D01*
X105269738Y-86226510D01*
X105269737Y-86226503D01*
X105239771Y-86154158D01*
X105209397Y-86080827D01*
X105209390Y-86080814D01*
X105121789Y-85949711D01*
X105121786Y-85949707D01*
X105010292Y-85838213D01*
X105010288Y-85838210D01*
X104879185Y-85750609D01*
X104879172Y-85750602D01*
X104733501Y-85690264D01*
X104733489Y-85690261D01*
X104578845Y-85659500D01*
X104578842Y-85659500D01*
X104421158Y-85659500D01*
X104421155Y-85659500D01*
X104266510Y-85690261D01*
X104266498Y-85690264D01*
X104120827Y-85750602D01*
X104120814Y-85750609D01*
X103989711Y-85838210D01*
X103989707Y-85838213D01*
X103878213Y-85949707D01*
X103878210Y-85949711D01*
X103790609Y-86080814D01*
X103790602Y-86080827D01*
X103730264Y-86226498D01*
X103730261Y-86226510D01*
X103699500Y-86381153D01*
X103699500Y-86538846D01*
X103730261Y-86693489D01*
X103730264Y-86693501D01*
X103790602Y-86839172D01*
X103790609Y-86839185D01*
X103878210Y-86970288D01*
X103878213Y-86970292D01*
X103989707Y-87081786D01*
X103989711Y-87081789D01*
X104125316Y-87172398D01*
X104170121Y-87226010D01*
X104178828Y-87295335D01*
X104148674Y-87358363D01*
X104089230Y-87395082D01*
X104056425Y-87399500D01*
X103352129Y-87399500D01*
X103352123Y-87399501D01*
X103292516Y-87405908D01*
X103157671Y-87456202D01*
X103157664Y-87456206D01*
X103042455Y-87542452D01*
X102984771Y-87619507D01*
X102928836Y-87661378D01*
X102859145Y-87666361D01*
X102820715Y-87650922D01*
X102688631Y-87569980D01*
X102455956Y-87473603D01*
X102288170Y-87433322D01*
X102227578Y-87398531D01*
X102195414Y-87336505D01*
X102201890Y-87266936D01*
X102244950Y-87211912D01*
X102269658Y-87198189D01*
X102339179Y-87169394D01*
X102470289Y-87081789D01*
X102581789Y-86970289D01*
X102669394Y-86839179D01*
X102729737Y-86693497D01*
X102760500Y-86538842D01*
X102760500Y-86381158D01*
X102760500Y-86381155D01*
X102760499Y-86381153D01*
X102729738Y-86226510D01*
X102729737Y-86226503D01*
X102699771Y-86154158D01*
X102669397Y-86080827D01*
X102669390Y-86080814D01*
X102581789Y-85949711D01*
X102581786Y-85949707D01*
X102470292Y-85838213D01*
X102470288Y-85838210D01*
X102339185Y-85750609D01*
X102339172Y-85750602D01*
X102193501Y-85690264D01*
X102193489Y-85690261D01*
X102038845Y-85659500D01*
X102038842Y-85659500D01*
X101881158Y-85659500D01*
X101881155Y-85659500D01*
X101726510Y-85690261D01*
X101726498Y-85690264D01*
X101580827Y-85750602D01*
X101580814Y-85750609D01*
X101449711Y-85838210D01*
X101449707Y-85838213D01*
X101338213Y-85949707D01*
X101338210Y-85949711D01*
X101250609Y-86080814D01*
X101250602Y-86080827D01*
X101190264Y-86226498D01*
X101190261Y-86226510D01*
X101159500Y-86381153D01*
X101159500Y-86538846D01*
X101190261Y-86693489D01*
X101190264Y-86693501D01*
X101250602Y-86839172D01*
X101250609Y-86839185D01*
X101338210Y-86970288D01*
X101338213Y-86970292D01*
X101449707Y-87081786D01*
X101449711Y-87081789D01*
X101580814Y-87169390D01*
X101580818Y-87169392D01*
X101580821Y-87169394D01*
X101650336Y-87198188D01*
X101704738Y-87242027D01*
X101726803Y-87308321D01*
X101709524Y-87376020D01*
X101658388Y-87423631D01*
X101631829Y-87433322D01*
X101464043Y-87473603D01*
X101231368Y-87569980D01*
X101016637Y-87701567D01*
X101015819Y-87702266D01*
X101789765Y-88476212D01*
X101747708Y-88487482D01*
X101622292Y-88559890D01*
X101519890Y-88662292D01*
X101447482Y-88787708D01*
X101436212Y-88829765D01*
X100662266Y-88055819D01*
X100661567Y-88056637D01*
X100529980Y-88271368D01*
X100433603Y-88504043D01*
X100374812Y-88748927D01*
X100355052Y-89000000D01*
X100374812Y-89251072D01*
X100433603Y-89495956D01*
X100529980Y-89728631D01*
X100661568Y-89943362D01*
X100662266Y-89944179D01*
X101436212Y-89170234D01*
X101447482Y-89212292D01*
X101519890Y-89337708D01*
X101622292Y-89440110D01*
X101747708Y-89512518D01*
X101789763Y-89523787D01*
X101015819Y-90297732D01*
X101015819Y-90297733D01*
X101016634Y-90298429D01*
X101231368Y-90430019D01*
X101464043Y-90526396D01*
X101708927Y-90585187D01*
X101960000Y-90604947D01*
X102211072Y-90585187D01*
X102455956Y-90526396D01*
X102688627Y-90430020D01*
X102820714Y-90349077D01*
X102888160Y-90330832D01*
X102954763Y-90351948D01*
X102984771Y-90380492D01*
X103042455Y-90457547D01*
X103157664Y-90543793D01*
X103157671Y-90543797D01*
X103292517Y-90594091D01*
X103292516Y-90594091D01*
X103299444Y-90594835D01*
X103352127Y-90600500D01*
X104482112Y-90600499D01*
X104549151Y-90620184D01*
X104569793Y-90636818D01*
X106209181Y-92276205D01*
X106242666Y-92337528D01*
X106245500Y-92363886D01*
X106245500Y-93921386D01*
X106225815Y-93988425D01*
X106173011Y-94034180D01*
X106103853Y-94044124D01*
X106040297Y-94015099D01*
X106018398Y-93990277D01*
X105990912Y-93949142D01*
X105967392Y-93913941D01*
X105940059Y-93873034D01*
X105940056Y-93873030D01*
X105830647Y-93763621D01*
X105830624Y-93763600D01*
X103480969Y-91413943D01*
X103480968Y-91413942D01*
X103431133Y-91380644D01*
X103357389Y-91331370D01*
X103357386Y-91331368D01*
X103357385Y-91331368D01*
X103276955Y-91298053D01*
X103220080Y-91274495D01*
X103195894Y-91269684D01*
X103074314Y-91245499D01*
X103074312Y-91245499D01*
X102925688Y-91245499D01*
X102919574Y-91245499D01*
X102919554Y-91245500D01*
X101363886Y-91245500D01*
X101296847Y-91225815D01*
X101276205Y-91209181D01*
X99285830Y-89218805D01*
X99252345Y-89157482D01*
X99249511Y-89131124D01*
X99249511Y-81461094D01*
X99269196Y-81394055D01*
X99322000Y-81348300D01*
X99391158Y-81338356D01*
X99405604Y-81341319D01*
X99515011Y-81370634D01*
X99515011Y-80473012D01*
X99572018Y-80505925D01*
X99699185Y-80540000D01*
X99830837Y-80540000D01*
X99958004Y-80505925D01*
X100015011Y-80473012D01*
X100015011Y-81370633D01*
G37*
%TD.AperFunction*%
%TA.AperFunction,Conductor*%
G36*
X116688539Y-92774185D02*
G01*
X116734294Y-92826989D01*
X116745500Y-92878500D01*
X116745500Y-95299113D01*
X116725815Y-95366152D01*
X116673011Y-95411907D01*
X116603853Y-95421851D01*
X116540297Y-95392826D01*
X116533819Y-95386794D01*
X116327171Y-95180146D01*
X116293686Y-95118823D01*
X116291324Y-95081661D01*
X116305468Y-94920000D01*
X116285635Y-94693308D01*
X116238944Y-94519054D01*
X116226741Y-94473511D01*
X116226738Y-94473502D01*
X116192915Y-94400969D01*
X116130568Y-94267266D01*
X116017585Y-94105908D01*
X116000045Y-94080858D01*
X115839141Y-93919954D01*
X115652734Y-93789432D01*
X115652732Y-93789431D01*
X115446497Y-93693261D01*
X115446488Y-93693258D01*
X115226697Y-93634366D01*
X115226693Y-93634365D01*
X115226692Y-93634365D01*
X115226691Y-93634364D01*
X115226686Y-93634364D01*
X115000002Y-93614532D01*
X114999998Y-93614532D01*
X114773313Y-93634364D01*
X114773302Y-93634366D01*
X114553511Y-93693258D01*
X114553502Y-93693261D01*
X114347267Y-93789431D01*
X114347265Y-93789432D01*
X114160858Y-93919954D01*
X113999953Y-94080859D01*
X113905347Y-94215972D01*
X113850770Y-94259597D01*
X113781272Y-94266791D01*
X113718917Y-94235268D01*
X113689213Y-94192304D01*
X113679407Y-94168630D01*
X113668630Y-94142611D01*
X113586370Y-94019500D01*
X113586059Y-94019034D01*
X113586058Y-94019033D01*
X113586056Y-94019030D01*
X113476647Y-93909621D01*
X113476624Y-93909600D01*
X112533206Y-92966181D01*
X112499721Y-92904858D01*
X112504705Y-92835166D01*
X112546577Y-92779233D01*
X112612041Y-92754816D01*
X112620887Y-92754500D01*
X116621500Y-92754500D01*
X116688539Y-92774185D01*
G37*
%TD.AperFunction*%
%TA.AperFunction,Conductor*%
G36*
X111947482Y-89212292D02*
G01*
X112019890Y-89337708D01*
X112122292Y-89440110D01*
X112247708Y-89512518D01*
X112289763Y-89523787D01*
X111515819Y-90297732D01*
X111515819Y-90297733D01*
X111516634Y-90298429D01*
X111731368Y-90430019D01*
X111964043Y-90526396D01*
X112208927Y-90585187D01*
X112460000Y-90604947D01*
X112711072Y-90585187D01*
X112955956Y-90526396D01*
X113188627Y-90430020D01*
X113320714Y-90349077D01*
X113388160Y-90330832D01*
X113454763Y-90351948D01*
X113484771Y-90380492D01*
X113542455Y-90457547D01*
X113657664Y-90543793D01*
X113657671Y-90543797D01*
X113792517Y-90594091D01*
X113792516Y-90594091D01*
X113799444Y-90594835D01*
X113852127Y-90600500D01*
X115482112Y-90600499D01*
X115549151Y-90620184D01*
X115569793Y-90636818D01*
X115966794Y-91033819D01*
X116000279Y-91095142D01*
X115995295Y-91164834D01*
X115953423Y-91220767D01*
X115887959Y-91245184D01*
X115879113Y-91245500D01*
X111863886Y-91245500D01*
X111796847Y-91225815D01*
X111776205Y-91209181D01*
X110790819Y-90223794D01*
X110757334Y-90162471D01*
X110754500Y-90136113D01*
X110754500Y-89686952D01*
X110774185Y-89619913D01*
X110826989Y-89574158D01*
X110896147Y-89564214D01*
X110959703Y-89593239D01*
X110993061Y-89639499D01*
X111029980Y-89728631D01*
X111161568Y-89943362D01*
X111162266Y-89944179D01*
X111936212Y-89170234D01*
X111947482Y-89212292D01*
G37*
%TD.AperFunction*%
%TA.AperFunction,Conductor*%
G36*
X100015011Y-79606988D02*
G01*
X99958004Y-79574075D01*
X99830837Y-79540000D01*
X99699185Y-79540000D01*
X99572018Y-79574075D01*
X99515011Y-79606988D01*
X99515011Y-77933012D01*
X99572018Y-77965925D01*
X99699185Y-78000000D01*
X99830837Y-78000000D01*
X99958004Y-77965925D01*
X100015011Y-77933012D01*
X100015011Y-79606988D01*
G37*
%TD.AperFunction*%
%TD*%
M02*
