M48
; DRILL file {KiCad 8.0.3} date 2024-07-21T00:31:29+0200
; FORMAT={-:-/ absolute / inch / decimal}
; #@! TF.CreationDate,2024-07-21T00:31:29+02:00
; #@! TF.GenerationSoftware,Kicad,Pcbnew,8.0.3
; #@! TF.FileFunction,Plated,1,2,PTH
FMAT,2
INCH
; #@! TA.AperFunction,Plated,PTH,ViaDrill
T1C0.0118
; #@! TA.AperFunction,Plated,PTH,ComponentDrill
T2C0.0295
; #@! TA.AperFunction,Plated,PTH,ComponentDrill
T3C0.0315
; #@! TA.AperFunction,Plated,PTH,ComponentDrill
T4C0.0354
; #@! TA.AperFunction,Plated,PTH,ComponentDrill
T5C0.0394
; #@! TA.AperFunction,Plated,PTH,ComponentDrill
T6C0.0433
%
G90
G05
T1
X3.0Y-3.0
X3.1Y-3.0
X3.1Y-3.2
X3.1Y-3.3
X3.1Y-3.4
X3.1Y-3.5
X3.2Y-3.0
X3.2Y-3.2
X3.2Y-3.3
X3.2Y-3.4
X3.2Y-3.5
X3.3Y-3.0
X3.3Y-3.2
X3.3Y-3.3
X3.3Y-3.4
X3.3Y-3.5
X3.4Y-3.0
X3.4Y-3.2
X3.4Y-3.3
X3.4Y-3.4
X3.4Y-3.5
X3.5Y-3.0
X3.5Y-3.2
X3.5Y-3.3
X3.5Y-3.4
X3.5Y-3.5
X3.5Y-3.6
X3.5Y-3.7
X3.5Y-3.8
X3.5Y-3.9
X3.5Y-4.0
X3.5Y-4.1
X3.5Y-4.2
X3.6Y-3.0
X3.6Y-3.2
X3.6Y-3.3
X3.6Y-3.4
X3.6Y-3.5
X3.6Y-3.6
X3.6Y-3.7
X3.6Y-3.8
X3.6Y-3.9
X3.6Y-4.0
X3.6Y-4.1
X3.6Y-4.2
X3.7Y-3.0
X3.7Y-3.2
X3.7Y-3.3
X3.7Y-3.4
X3.7Y-3.5
X3.7Y-3.6
X3.7Y-3.7
X3.7Y-3.8
X3.7Y-3.9
X3.7Y-4.0
X3.7Y-4.1
X3.7Y-4.2
X3.8Y-3.0
X3.8Y-3.2
X3.8Y-3.3
X3.8Y-3.4
X3.8Y-3.5
X3.8Y-3.6
X3.8Y-3.7
X3.8Y-3.8
X3.8Y-3.9
X3.8Y-4.0
X3.8Y-4.1
X3.8Y-4.2
X3.9Y-3.0
X3.9Y-3.7
X3.9Y-3.8
X3.9Y-3.9
X3.9Y-4.0
X3.9Y-4.1
X3.9Y-4.2
X4.0Y-3.0
X4.0Y-3.2
X4.0Y-3.3
X4.0Y-3.7
X4.1Y-3.0
X4.1Y-3.3
X4.1Y-3.6
X4.2Y-3.0
X4.2Y-3.3
X4.2Y-3.4
X4.2Y-3.5
X4.3Y-3.0
X4.3Y-3.7
X4.3Y-3.8
X4.3Y-3.9
X4.3Y-4.0
X4.3Y-4.1
X4.4Y-3.0
X4.4Y-3.2
X4.4Y-3.3
X4.4Y-3.8
X4.4Y-3.9
X4.4Y-4.0
X4.4Y-4.1
X4.475Y-3.575
X4.475Y-3.675
X4.5Y-3.0
X4.5Y-3.2
X4.5Y-3.3
X4.5Y-3.9
X4.5Y-4.0
X4.575Y-3.675
X4.6Y-3.0
X4.6Y-3.2
X4.6Y-3.3
X4.6Y-4.0
X4.6Y-4.1
X4.65Y-3.4
X4.65Y-3.5
X4.7Y-3.0
X4.7Y-3.2
X4.7Y-3.3
X4.725Y-3.6
X4.8Y-3.0
X4.8Y-3.2
X4.8Y-3.3
X4.8Y-3.6
X4.8Y-3.7
X4.8Y-3.775
X4.8Y-3.9
X4.85Y-3.975
X4.9Y-3.0
X4.9Y-3.2
X4.9Y-3.3
X4.9Y-3.6
X4.9Y-3.825
X4.9Y-4.2
X5.0Y-3.0
X5.0Y-3.1
X5.0Y-3.2
X5.0Y-3.3
X5.0Y-3.4
X5.0Y-3.5
X5.0Y-3.6
X5.0Y-3.7
X5.0Y-3.8
X5.0Y-3.9
X5.0Y-4.0
X5.0Y-4.1
X5.0Y-4.2
X5.1Y-3.0
X5.1Y-3.1
X5.1Y-3.2
X5.1Y-3.9
X5.1Y-4.0
X5.1Y-4.1
X5.1Y-4.2
T2
X4.0445Y-4.0803
X4.0945Y-4.0803
X4.1445Y-4.0803
T3
X4.3504Y-3.737
X4.3504Y-4.137
X4.5276Y-3.737
X4.5276Y-4.137
X4.7047Y-3.737
X4.7047Y-4.137
X4.9016Y-3.737
X4.9016Y-4.137
T4
X4.0945Y-3.7598
X4.0945Y-3.8598
T5
X3.0278Y-3.0512
X3.0278Y-3.1512
X3.1278Y-3.0512
X3.1278Y-3.1512
X3.2278Y-3.0512
X3.2278Y-3.1512
X3.3278Y-3.0512
X3.3278Y-3.1512
X3.4278Y-3.0512
X3.4278Y-3.1512
X3.5278Y-3.0512
X3.5278Y-3.1512
X3.6278Y-3.0512
X3.6278Y-3.1512
X3.7278Y-3.0512
X3.7278Y-3.1512
X3.8278Y-3.0512
X3.8278Y-3.1512
X3.9278Y-3.0512
X3.9278Y-3.1512
X4.0278Y-3.0512
X4.0278Y-3.1512
X4.1278Y-3.0512
X4.1278Y-3.1512
X4.2278Y-3.0512
X4.2278Y-3.1512
X4.3278Y-3.0512
X4.3278Y-3.1512
X4.4278Y-3.0512
X4.4278Y-3.1512
X4.5278Y-3.0512
X4.5278Y-3.1512
X4.6278Y-3.0512
X4.6278Y-3.1512
X4.7278Y-3.0512
X4.7278Y-3.1512
X4.8278Y-3.0512
X4.8278Y-3.1512
X4.9278Y-3.0512
X4.9278Y-3.1512
X5.0575Y-3.3189
X5.0575Y-3.4189
X5.0575Y-3.5189
X5.0575Y-3.6189
X5.0575Y-3.7189
X5.0575Y-3.8189
X5.1575Y-3.3189
X5.1575Y-3.4189
X5.1575Y-3.5189
X5.1575Y-3.6189
X5.1575Y-3.7189
X5.1575Y-3.8189
T6
X4.0142Y-3.5039
X4.1142Y-3.5039
X4.4276Y-3.5039
X4.5276Y-3.5039
X4.7622Y-3.5039
X4.8622Y-3.5039
M30
